<svg width="17" height="17" viewBox="0 0 17 17" fill="none" xmlns="http://www.w3.org/2000/svg">
<path fill-rule="evenodd" clip-rule="evenodd" d="M7.33151 14.6789C7.65286 15.1609 8.08825 15.5561 8.59902 15.8293C9.1098 16.1026 9.68014 16.2455 10.2594 16.2453H10.4468C10.7023 16.2454 10.9547 16.1897 11.1865 16.0823C11.4183 15.9749 11.624 15.8183 11.7891 15.6233C11.9543 15.4284 12.075 15.1998 12.1428 14.9535C12.2107 14.7071 12.2241 14.449 12.182 14.197L11.6438 10.9682H13.737C14.1274 10.9683 14.5129 10.8817 14.8658 10.7147C15.2186 10.5477 15.53 10.3046 15.7775 10.0027C16.025 9.70083 16.2025 9.34781 16.2971 8.96908C16.3917 8.59034 16.4011 8.19534 16.3246 7.81255L15.2691 2.53545C15.1496 1.93724 14.8264 1.39893 14.3546 1.01216C13.8829 0.625378 13.2917 0.414024 12.6816 0.414063H2.6903C1.99052 0.414063 1.31939 0.692052 0.82457 1.18688C0.329747 1.6817 0.0517578 2.35282 0.0517578 3.05261V10.0887C0.0517578 10.322 0.144421 10.5457 0.309362 10.7106C0.474303 10.8756 0.698011 10.9682 0.931273 10.9682H4.38777C4.53253 10.9682 4.67506 11.0039 4.80271 11.0722C4.93036 11.1405 5.03918 11.2392 5.11953 11.3596L7.33151 14.6789ZM3.56982 2.17309V9.20922H1.81079V3.05261C1.81079 2.81935 1.90345 2.59564 2.06839 2.4307C2.23333 2.26576 2.45704 2.17309 2.6903 2.17309H3.56982Z" fill="white"/>
</svg>
