<svg width="16" height="17" viewBox="0 0 16 17" fill="none" xmlns="http://www.w3.org/2000/svg">
<path d="M6 1.5C5.37935 1.49968 4.77387 1.69186 4.26702 2.05006C3.76016 2.40826 3.37688 2.91484 3.17 3.5H0V5.5H3.17C3.3766 6.08553 3.75974 6.59257 4.2666 6.95121C4.77346 7.30985 5.37909 7.50245 6 7.50245C6.62091 7.50245 7.22654 7.30985 7.7334 6.95121C8.24026 6.59257 8.6234 6.08553 8.83 5.5H16V3.5H8.83C8.62312 2.91484 8.23984 2.40826 7.73298 2.05006C7.22613 1.69186 6.62065 1.49968 6 1.5ZM5 4.5C5 4.23478 5.10536 3.98043 5.29289 3.79289C5.48043 3.60536 5.73478 3.5 6 3.5C6.26522 3.5 6.51957 3.60536 6.70711 3.79289C6.89464 3.98043 7 4.23478 7 4.5C7 4.76522 6.89464 5.01957 6.70711 5.20711C6.51957 5.39464 6.26522 5.5 6 5.5C5.73478 5.5 5.48043 5.39464 5.29289 5.20711C5.10536 5.01957 5 4.76522 5 4.5ZM10 9.5C9.37935 9.49967 8.77387 9.69186 8.26702 10.0501C7.76016 10.4083 7.37688 10.9148 7.17 11.5H0V13.5H7.17C7.3766 14.0855 7.75974 14.5926 8.2666 14.9512C8.77346 15.3099 9.37909 15.5025 10 15.5025C10.6209 15.5025 11.2265 15.3099 11.7334 14.9512C12.2403 14.5926 12.6234 14.0855 12.83 13.5H16V11.5H12.83C12.6231 10.9148 12.2398 10.4083 11.733 10.0501C11.2261 9.69186 10.6207 9.49967 10 9.5ZM9 12.5C9 12.2348 9.10536 11.9804 9.29289 11.7929C9.48043 11.6054 9.73478 11.5 10 11.5C10.2652 11.5 10.5196 11.6054 10.7071 11.7929C10.8946 11.9804 11 12.2348 11 12.5C11 12.7652 10.8946 13.0196 10.7071 13.2071C10.5196 13.3946 10.2652 13.5 10 13.5C9.73478 13.5 9.48043 13.3946 9.29289 13.2071C9.10536 13.0196 9 12.7652 9 12.5Z" fill="#757575"/>
</svg>
