<svg width="24" height="25" viewBox="0 0 24 25" fill="none" xmlns="http://www.w3.org/2000/svg">
<path fill-rule="evenodd" clip-rule="evenodd" d="M2.5121 12.4998C2.5121 7.26022 6.75963 3.0127 11.9992 3.0127C17.2388 3.0127 21.4863 7.26022 21.4863 12.4998V15.2172C21.5624 15.1903 21.6443 15.1757 21.7296 15.1757C22.1326 15.1757 22.4594 15.5024 22.4594 15.9054V17.8515C22.4594 18.2546 22.1326 18.5813 21.7296 18.5813C21.6414 18.5813 21.5568 18.5657 21.4786 18.537C21.4732 18.732 21.4642 18.9116 21.4489 19.0763C21.4097 19.4999 21.3249 19.8904 21.1155 20.2561C20.9762 20.4995 20.8008 20.7201 20.5951 20.9096C20.2833 21.197 19.922 21.3603 19.5219 21.4816C19.1438 21.5962 18.6743 21.6888 18.1181 21.7984L18.0458 21.8127C17.6661 21.8876 17.3212 21.9556 17.0342 21.9783C16.7254 22.0026 16.3772 21.9856 16.0437 21.7979C15.8462 21.6867 15.6736 21.5374 15.5346 21.3596C15.3037 21.0642 15.2265 20.727 15.1931 20.4166C15.1615 20.1239 15.1616 19.7629 15.1616 19.3577V14.2626C15.1616 13.9183 15.1615 13.6089 15.1863 13.3549C15.2127 13.0838 15.2732 12.7909 15.4516 12.5195C15.5986 12.2959 15.7956 12.1084 16.0287 11.9741C16.3158 11.8086 16.6151 11.7719 16.8854 11.7701C17.1351 11.7684 17.4349 11.798 17.7618 11.8303L17.83 11.837C18.3999 11.8932 18.8793 11.9404 19.2679 12.0174C19.5341 12.0701 19.7865 12.1417 20.0231 12.2551C19.8938 7.93483 16.3509 4.47225 11.9992 4.47225C7.64757 4.47225 4.10465 7.93483 3.97531 12.2551C4.21193 12.1417 4.46432 12.0701 4.73058 12.0174C5.11912 11.9404 5.59858 11.8932 6.16845 11.837L6.23664 11.8303C6.56355 11.798 6.86333 11.7684 7.11307 11.7701C7.38331 11.7719 7.68259 11.8086 7.96974 11.9741C8.20286 12.1084 8.39982 12.2959 8.54682 12.5195C8.72525 12.7909 8.78576 13.0838 8.81216 13.3549C8.83689 13.6089 8.83687 13.9183 8.83685 14.2626V19.3577C8.83688 19.7629 8.8369 20.1239 8.80537 20.4166C8.77192 20.727 8.69469 21.0642 8.4638 21.3596C8.32487 21.5374 8.15226 21.6867 7.95476 21.7979C7.6212 21.9856 7.27309 22.0026 6.96421 21.9783C6.67723 21.9556 6.33237 21.8876 5.9526 21.8127L5.88034 21.7984C5.32416 21.6888 4.85463 21.5962 4.47652 21.4816C4.07644 21.3603 3.71511 21.197 3.40331 20.9096C3.19759 20.7201 3.02228 20.4995 2.88295 20.2561C2.67352 19.8904 2.58877 19.4999 2.54951 19.0763C2.53425 18.9116 2.52522 18.732 2.51986 18.537C2.44159 18.5656 2.35704 18.5813 2.26884 18.5813C1.8658 18.5813 1.53906 18.2546 1.53906 17.8515V15.9054C1.53906 15.5024 1.8658 15.1757 2.26884 15.1757C2.35414 15.1757 2.43601 15.1903 2.5121 15.2172V12.4998ZM3.97166 17.5531C3.97166 18.1871 3.97238 18.6129 4.00284 18.9416C4.03218 19.2582 4.08461 19.4175 4.14955 19.5309C4.21562 19.6462 4.29776 19.7491 4.39241 19.8363C4.48186 19.9188 4.61399 19.9981 4.89992 20.0848C5.19998 20.1757 5.59734 20.2549 6.19736 20.3733C6.62707 20.458 6.88712 20.5081 7.0789 20.5232C7.1823 20.5314 7.22943 20.5255 7.24517 20.5223C7.26943 20.5076 7.29256 20.4876 7.31271 20.4622C7.31871 20.4504 7.33919 20.3997 7.35421 20.2603C7.37629 20.0553 7.37729 19.7743 7.37729 19.3212V14.2947C7.37729 13.9081 7.37648 13.671 7.35947 13.4963C7.3476 13.3744 7.33117 13.3302 7.32671 13.3205C7.30393 13.2861 7.2758 13.2598 7.24591 13.2416C7.23311 13.2381 7.19298 13.2302 7.10314 13.2296C6.9398 13.2285 6.71793 13.2494 6.34639 13.2861C5.73268 13.3466 5.32459 13.3876 5.01417 13.4491C4.7167 13.508 4.57875 13.5738 4.48604 13.6436C4.34997 13.7461 4.23373 13.8783 4.1461 14.0333C4.08337 14.1442 4.03135 14.304 4.00233 14.6257C3.97235 14.9581 3.97166 15.3896 3.97166 16.0296V17.5531ZM20.0268 16.0296C20.0268 15.3896 20.0261 14.9581 19.9961 14.6257C19.9671 14.304 19.9151 14.1442 19.8523 14.0333C19.7647 13.8783 19.6485 13.7461 19.5124 13.6436C19.4197 13.5738 19.2817 13.508 18.9843 13.4491C18.6738 13.3876 18.2658 13.3466 17.652 13.2861C17.2805 13.2494 17.0586 13.2285 16.8953 13.2296C16.8055 13.2302 16.7653 13.2381 16.7525 13.2416C16.7226 13.2598 16.6945 13.2861 16.6717 13.3205C16.6673 13.3302 16.6508 13.3744 16.639 13.4963C16.622 13.671 16.6211 13.9081 16.6211 14.2947V19.3212C16.6211 19.7743 16.6221 20.0553 16.6442 20.2603C16.6592 20.3997 16.6797 20.4504 16.6857 20.4622C16.7059 20.4876 16.729 20.5076 16.7533 20.5223C16.769 20.5255 16.8161 20.5314 16.9195 20.5232C17.1113 20.5081 17.3714 20.458 17.8011 20.3733C18.4011 20.2549 18.7985 20.1757 19.0985 20.0848C19.3844 19.9981 19.5166 19.9188 19.606 19.8363C19.7007 19.7491 19.7828 19.6462 19.8489 19.5309C19.9138 19.4175 19.9663 19.2582 19.9956 18.9416C20.0261 18.6129 20.0268 18.1871 20.0268 17.5531V16.0296Z" fill="#191815"/>
</svg>
