<svg width="16" height="14" viewBox="0 0 16 14" fill="none" xmlns="http://www.w3.org/2000/svg">
<path d="M14.0379 1.74775C13.688 1.39769 13.2726 1.11999 12.8154 0.930533C12.3581 0.741071 11.868 0.643555 11.3731 0.643555C10.8781 0.643555 10.388 0.741071 9.93077 0.930533C9.47352 1.11999 9.05808 1.39769 8.70818 1.74775L7.98202 2.47391L7.25586 1.74775C6.54909 1.04098 5.5905 0.643921 4.59098 0.643921C3.59145 0.643921 2.63287 1.04098 1.9261 1.74775C1.21933 2.45452 0.822266 3.41311 0.822266 4.41263C0.822266 5.41216 1.21933 6.37074 1.9261 7.07751L2.65226 7.80367L7.98202 13.1334L13.3118 7.80367L14.0379 7.07751C14.388 6.72761 14.6657 6.31217 14.8552 5.85492C15.0446 5.39768 15.1421 4.90758 15.1421 4.41263C15.1421 3.91768 15.0446 3.42759 14.8552 2.97034C14.6657 2.51309 14.388 2.09765 14.0379 1.74775Z" fill="#E04D53" stroke="#E04D53" stroke-width="1.23311" stroke-linecap="round" stroke-linejoin="round"/>
</svg>
