<svg width="18" height="17" viewBox="0 0 18 17" fill="none" xmlns="http://www.w3.org/2000/svg">
<path fill-rule="evenodd" clip-rule="evenodd" d="M8.11471 1.98048C8.43606 1.49851 8.87146 1.10336 9.38223 0.830096C9.893 0.556835 10.4633 0.413928 11.0426 0.414063H11.23C11.4855 0.414031 11.7379 0.46966 11.9697 0.577081C12.2015 0.684502 12.4072 0.841135 12.5723 1.03609C12.7375 1.23104 12.8582 1.45963 12.926 1.70595C12.9939 1.95228 13.0073 2.21043 12.9652 2.46245L12.427 5.69116H14.5202C14.9106 5.69113 15.2961 5.77772 15.649 5.94469C16.0018 6.11166 16.3132 6.35484 16.5607 6.65671C16.8083 6.95857 16.9857 7.3116 17.0803 7.69033C17.1749 8.06906 17.1843 8.46406 17.1078 8.84686L16.0523 14.124C15.9328 14.7222 15.6096 15.2605 15.1378 15.6472C14.6661 16.034 14.0749 16.2454 13.4648 16.2453H3.47351C2.77372 16.2453 2.1026 15.9674 1.60777 15.4725C1.11295 14.9777 0.834961 14.3066 0.834961 13.6068V6.57067C0.834961 6.33741 0.927624 6.1137 1.09257 5.94876C1.25751 5.78382 1.48121 5.69116 1.71448 5.69116H5.17097C5.31573 5.69118 5.45826 5.65547 5.58591 5.58719C5.71356 5.51892 5.82239 5.42019 5.90273 5.29977L8.11471 1.98048ZM4.35302 7.45019H2.59399V13.6068C2.59399 13.8401 2.68666 14.0638 2.8516 14.2287C3.01654 14.3937 3.24025 14.4863 3.47351 14.4863H4.35302V7.45019Z" fill="white"/>
</svg>
