<svg width="24" height="28" viewBox="0 0 24 28" fill="none" xmlns="http://www.w3.org/2000/svg">
<path fill-rule="evenodd" clip-rule="evenodd" d="M24 12.7965V19.4544C24 23.5831 24 25.6475 23.0212 26.5496C22.5544 26.9798 21.9651 27.2501 21.3374 27.3219C20.0213 27.4725 18.4844 26.1131 15.4105 23.3943C14.0517 22.1925 13.3723 21.5916 12.5863 21.4333C12.1992 21.3553 11.8008 21.3553 11.4137 21.4333C10.6277 21.5916 9.94829 22.1925 8.58955 23.3943C5.51564 26.1131 3.97869 27.4725 2.66255 27.3219C2.03486 27.2501 1.44562 26.9798 0.978808 26.5496C0 25.6475 0 23.5831 0 19.4544V12.7965C0 7.07838 0 4.21931 1.75736 2.44291C3.51472 0.666504 6.34315 0.666504 12 0.666504C17.6569 0.666504 20.4853 0.666504 22.2426 2.44291C24 4.21931 24 7.07838 24 12.7965ZM7 5.99984C7 5.44755 7.44772 4.99984 8 4.99984H16C16.5523 4.99984 17 5.44755 17 5.99984C17 6.55212 16.5523 6.99984 16 6.99984H8C7.44772 6.99984 7 6.55212 7 5.99984Z" fill="#191815"/>
</svg>
