<svg width="19" height="19" viewBox="0 0 19 19" fill="none" xmlns="http://www.w3.org/2000/svg">
<path d="M10.89 1.86342L12.4379 4.95932C12.649 5.39028 13.2119 5.80365 13.6869 5.88281L16.4925 6.34895C18.2867 6.64799 18.7089 7.94967 17.416 9.23376L15.2348 11.415C14.8654 11.7844 14.6631 12.4968 14.7775 13.0069L15.4019 15.707C15.8944 17.8442 14.7599 18.671 12.8689 17.554L10.2392 15.9972C9.76422 15.7158 8.98145 15.7158 8.49772 15.9972L5.86796 17.554C3.9858 18.671 2.84243 17.8354 3.33496 15.707L3.95941 13.0069C4.07375 12.4968 3.87146 11.7844 3.50207 11.415L1.32087 9.23376C0.0367753 7.94967 0.450148 6.64799 2.24436 6.34895L5.05001 5.88281C5.51616 5.80365 6.07905 5.39028 6.29013 4.95932L7.83808 1.86342C8.68241 0.183547 10.0545 0.183547 10.89 1.86342Z" fill="white"/>
</svg>
