<svg width="23" height="22" viewBox="0 0 23 22" fill="none" xmlns="http://www.w3.org/2000/svg">
<rect x="1.07848" y="0.57879" width="20.8421" height="21" rx="10.4211" fill="#E04D53"/>
<rect x="1.07848" y="0.57879" width="20.8421" height="21" rx="10.4211" stroke="#FDFDFC" stroke-width="0.631579"/>
<path d="M7.448 13.0937L7.24337 12.8133L8.23621 13.0331V13.5788H5.39411V13.0331L6.57642 12.8285L6.36421 13.0937V9.13753L6.65979 9.15269L5.40168 9.84995L5.05305 9.19059L6.54611 8.2129H7.448V13.0937ZM10.588 13.6697C10.3455 13.6697 10.1105 13.6394 9.88317 13.5788C9.66086 13.5182 9.45875 13.4272 9.27686 13.306C9.09496 13.1796 8.95096 13.0281 8.84486 12.8512C8.7438 12.6693 8.69328 12.4596 8.69328 12.2222C8.69328 12.0352 8.72612 11.8609 8.7918 11.6992C8.86254 11.5375 8.96107 11.3961 9.08738 11.2748C9.2137 11.1485 9.36022 11.0449 9.52696 10.9641C9.6937 10.8782 9.87307 10.815 10.0651 10.7746L10.6941 11.0853C10.5729 11.1156 10.4541 11.1611 10.3379 11.2217C10.2267 11.2773 10.1257 11.3455 10.0347 11.4264C9.94886 11.5072 9.87812 11.6007 9.82254 11.7068C9.76696 11.8129 9.73917 11.9342 9.73917 12.0706C9.73917 12.2373 9.77707 12.3838 9.85286 12.5102C9.9337 12.6314 10.0423 12.7274 10.1787 12.7982C10.3202 12.8638 10.4794 12.8967 10.6562 12.8967C10.8432 12.8967 11.0074 12.8613 11.1489 12.7906C11.2903 12.7198 11.399 12.6238 11.4747 12.5026C11.5556 12.3813 11.596 12.2449 11.596 12.0933C11.596 11.9165 11.5455 11.7725 11.4444 11.6613C11.3484 11.5502 11.2171 11.4542 11.0503 11.3733C10.8886 11.2925 10.7093 11.2192 10.5122 11.1535C10.3152 11.0878 10.1181 11.0171 9.92107 10.9413C9.72907 10.8605 9.5497 10.7645 9.38296 10.6533C9.22128 10.5422 9.08991 10.4057 8.98886 10.2441C8.89286 10.0824 8.84486 9.87774 8.84486 9.63016C8.84486 9.29669 8.93328 9.02132 9.11012 8.80406C9.29201 8.5868 9.52696 8.42511 9.81496 8.31901C10.108 8.20785 10.4162 8.15227 10.7396 8.15227C11.0529 8.15227 11.3459 8.2028 11.6187 8.30385C11.8916 8.4049 12.1114 8.55901 12.2781 8.76616C12.4449 8.96827 12.5282 9.22343 12.5282 9.53164C12.5282 9.70848 12.4954 9.86764 12.4297 10.0091C12.3691 10.1506 12.2806 10.2718 12.1644 10.3729C12.0482 10.474 11.9143 10.5598 11.7627 10.6306C11.6112 10.7013 11.4444 10.7594 11.2625 10.8049L10.4971 10.4714C10.6436 10.4563 10.775 10.426 10.8912 10.3805C11.0124 10.335 11.1185 10.2769 11.2095 10.2062C11.3004 10.1304 11.3686 10.0445 11.4141 9.94848C11.4646 9.84743 11.4899 9.73627 11.4899 9.61501C11.4899 9.46343 11.4545 9.33711 11.3838 9.23606C11.3131 9.12995 11.2171 9.05164 11.0958 9.00111C10.9745 8.94553 10.8406 8.91774 10.6941 8.91774C10.5526 8.91774 10.4213 8.94301 10.3 8.99353C10.1787 9.04406 10.0802 9.11985 10.0044 9.2209C9.92864 9.3169 9.89075 9.43816 9.89075 9.58469C9.89075 9.75143 9.94128 9.89038 10.0423 10.0015C10.1434 10.1076 10.2747 10.1986 10.4364 10.2744C10.5981 10.3502 10.7775 10.4209 10.9745 10.4866C11.1716 10.5523 11.3686 10.6255 11.5657 10.7064C11.7627 10.7822 11.9421 10.8782 12.1038 10.9944C12.2705 11.1055 12.4019 11.247 12.4979 11.4188C12.599 11.5855 12.6495 11.7927 12.6495 12.0403C12.6495 12.3081 12.5914 12.5455 12.4752 12.7527C12.359 12.9548 12.2023 13.1241 12.0053 13.2605C11.8082 13.3918 11.5859 13.4929 11.3383 13.5636C11.0958 13.6344 10.8457 13.6697 10.588 13.6697ZM14.9249 10.5472L14.7506 10.7215V9.08448H15.554V10.7215L15.3796 10.5472H16.9561V11.3051H15.3796L15.554 11.1308V12.7678H14.7506V11.1308L14.9249 11.3051H13.3485V10.5472H14.9249Z" fill="#FDFDFC"/>
</svg>
