<svg width="16" height="16" viewBox="0 0 16 16" fill="none" xmlns="http://www.w3.org/2000/svg">
<path fill-rule="evenodd" clip-rule="evenodd" d="M8.00041 0.833313C6.25151 0.833313 4.83375 2.25108 4.83375 3.99998C4.83375 5.74888 6.25151 7.16665 8.00041 7.16665C9.74932 7.16665 11.1671 5.74888 11.1671 3.99998C11.1671 2.25108 9.74932 0.833313 8.00041 0.833313ZM5.83375 3.99998C5.83375 2.80336 6.8038 1.83331 8.00041 1.83331C9.19703 1.83331 10.1671 2.80336 10.1671 3.99998C10.1671 5.1966 9.19703 6.16665 8.00041 6.16665C6.8038 6.16665 5.83375 5.1966 5.83375 3.99998Z" fill="#191815"/>
<path d="M11.3337 10.1666C11.0576 10.1666 10.8337 10.3905 10.8337 10.6666C10.8337 10.9428 11.0576 11.1666 11.3337 11.1666H12.6671C12.9432 11.1666 13.1671 10.9428 13.1671 10.6666C13.1671 10.3905 12.9432 10.1666 12.6671 10.1666H11.3337Z" fill="#191815"/>
<path fill-rule="evenodd" clip-rule="evenodd" d="M8.00041 8.16665C8.64605 8.16665 9.26836 8.22801 9.85018 8.34192C10.4149 7.81935 11.1704 7.49998 12.0004 7.49998C13.7493 7.49998 15.1671 8.91775 15.1671 10.6666C15.1671 11.84 14.5289 12.8644 13.5806 13.4115C13.3319 13.9511 12.8661 14.3798 12.0802 14.6723C11.207 14.9974 9.91248 15.1666 8.00041 15.1666C6.6499 15.1666 5.61326 15.0819 4.81789 14.921C4.02473 14.7604 3.43767 14.5174 3.01802 14.1757C2.16534 13.4813 2.16628 12.5092 2.16704 11.7346L2.16708 11.6666C2.16708 10.5774 2.94674 9.69303 3.98405 9.10954C5.03703 8.51724 6.45805 8.16665 8.00041 8.16665ZM3.16708 11.6666C3.16708 11.0991 3.58133 10.4834 4.47431 9.98111C5.35161 9.48763 6.59726 9.16665 8.00041 9.16665C8.40445 9.16665 8.79639 9.19329 9.17089 9.24331C8.95521 9.67122 8.83375 10.1547 8.83375 10.6666C8.83375 12.2595 10.0098 13.5777 11.541 13.8002C10.8271 14.0244 9.71906 14.1666 8.00041 14.1666C6.68426 14.1666 5.72091 14.0835 5.01628 13.9408C4.30943 13.7978 3.89649 13.6014 3.64947 13.4003C3.19396 13.0293 3.16708 12.5385 3.16708 11.6666ZM12.0004 8.49998C10.8038 8.49998 9.83375 9.47003 9.83375 10.6666C9.83375 11.8633 10.8038 12.8333 12.0004 12.8333C13.197 12.8333 14.1671 11.8633 14.1671 10.6666C14.1671 9.47003 13.197 8.49998 12.0004 8.49998Z" fill="#191815"/>
</svg>
