<svg width="16" height="16" viewBox="0 0 16 16" fill="none" xmlns="http://www.w3.org/2000/svg">
<path d="M5.97416 12.6072L6.43848 12.0182L5.97416 12.6072ZM7.99967 3.66703L7.45931 4.18713C7.6007 4.33402 7.79579 4.41703 7.99967 4.41703C8.20356 4.41703 8.39865 4.33402 8.54004 4.18713L7.99967 3.66703ZM10.0252 12.6072L10.4895 13.1962L10.0252 12.6072ZM5.97416 12.6072L6.43848 12.0182C5.4132 11.21 4.33603 10.4524 3.47879 9.48711C2.64727 8.55079 2.08301 7.47825 2.08301 6.09134H1.33301H0.583008C0.583008 7.94638 1.35855 9.35861 2.35722 10.4831C3.33018 11.5787 4.57358 12.4581 5.50985 13.1962L5.97416 12.6072ZM1.33301 6.09134H2.08301C2.08301 4.75096 2.84003 3.63989 3.85318 3.17677C4.81905 2.73527 6.15131 2.82816 7.45931 4.18713L7.99967 3.66703L8.54004 3.14693C6.84815 1.38911 4.84707 1.07318 3.22958 1.81254C1.65937 2.53029 0.583008 4.18976 0.583008 6.09134H1.33301ZM5.97416 12.6072L5.50985 13.1962C5.84904 13.4636 6.22908 13.7617 6.61809 13.9891C7.00687 14.2162 7.47594 14.4166 7.99967 14.4166V13.6666V12.9166C7.85674 12.9166 7.65915 12.8601 7.37488 12.694C7.09085 12.528 6.79146 12.2965 6.43848 12.0182L5.97416 12.6072ZM10.0252 12.6072L10.4895 13.1962C11.4258 12.4581 12.6692 11.5787 13.6421 10.4831C14.6408 9.35861 15.4163 7.94638 15.4163 6.09134H14.6663H13.9163C13.9163 7.47825 13.3521 8.55079 12.5206 9.48711C11.6633 10.4524 10.5861 11.21 9.56087 12.0182L10.0252 12.6072ZM14.6663 6.09134H15.4163C15.4163 4.18976 14.34 2.53029 12.7698 1.81254C11.1523 1.07318 9.1512 1.38911 7.45931 3.14693L7.99967 3.66703L8.54004 4.18713C9.84804 2.82816 11.1803 2.73527 12.1462 3.17677C13.1593 3.63989 13.9163 4.75096 13.9163 6.09134H14.6663ZM10.0252 12.6072L9.56087 12.0182C9.20789 12.2965 8.9085 12.528 8.62447 12.694C8.3402 12.8601 8.14261 12.9166 7.99967 12.9166V13.6666V14.4166C8.52341 14.4166 8.99248 14.2162 9.38126 13.9891C9.77027 13.7617 10.1503 13.4636 10.4895 13.1962L10.0252 12.6072Z" fill="#191815"/>
</svg>
