<svg width="25" height="24" viewBox="0 0 25 24" fill="none" xmlns="http://www.w3.org/2000/svg">
<g clip-path="url(#clip0_207_8315)">
<path d="M14.375 11.625C14.375 10.7966 13.7034 10.125 12.875 10.125C12.0466 10.125 11.375 10.7966 11.375 11.625C11.375 12.4534 12.0466 13.125 12.875 13.125C13.7034 13.125 14.375 12.4534 14.375 11.625Z" fill="#888272"/>
<path d="M14.375 5.625C14.375 4.79657 13.7034 4.125 12.875 4.125C12.0466 4.125 11.375 4.79657 11.375 5.625C11.375 6.45343 12.0466 7.125 12.875 7.125C13.7034 7.125 14.375 6.45343 14.375 5.625Z" fill="#888272"/>
<path d="M14.375 17.625C14.375 16.7966 13.7034 16.125 12.875 16.125C12.0466 16.125 11.375 16.7966 11.375 17.625C11.375 18.4534 12.0466 19.125 12.875 19.125C13.7034 19.125 14.375 18.4534 14.375 17.625Z" fill="#888272"/>
</g>
<defs>
<clipPath id="clip0_207_8315">
<rect width="24" height="24" fill="white" transform="matrix(0 -1 1 0 0.5 24)"/>
</clipPath>
</defs>
</svg>
