<svg width="16" height="16" viewBox="0 0 16 16" fill="none" xmlns="http://www.w3.org/2000/svg">
<g clip-path="url(#clip0_269_8982)">
<path d="M8.72411 14.2584L9.15439 14.5131L8.72411 14.2584ZM9.08551 13.6479L8.65523 13.3932L9.08551 13.6479ZM6.91381 13.6479L6.48354 13.9025L6.91381 13.6479ZM7.27521 14.2584L7.70549 14.0038L7.27521 14.2584ZM1.58674 10.6089L2.04868 10.4176H2.04868L1.58674 10.6089ZM5.19273 12.6609L5.18411 13.1609H5.18411L5.19273 12.6609ZM3.39073 12.4129L3.19939 12.8749L3.19939 12.8749L3.39073 12.4129ZM14.4126 10.6089L14.8745 10.8003L14.4126 10.6089ZM10.8066 12.6609L10.798 12.161L10.8066 12.6609ZM12.6086 12.4129L12.8 12.8749V12.8749L12.6086 12.4129ZM13.0747 1.82451L12.8134 2.25083V2.25083L13.0747 1.82451ZM14.1751 2.92498L14.6015 2.66374V2.66373L14.1751 2.92498ZM2.92468 1.82451L2.66343 1.39819V1.39819L2.92468 1.82451ZM1.82421 2.92498L1.39789 2.66374H1.39789L1.82421 2.92498ZM6.2682 12.8065L6.51958 12.3743L6.51958 12.3743L6.2682 12.8065ZM8.72411 14.2584L9.15439 14.5131L9.51579 13.9025L9.08551 13.6479L8.65523 13.3932L8.29383 14.0038L8.72411 14.2584ZM6.91381 13.6479L6.48354 13.9025L6.84494 14.5131L7.27521 14.2584L7.70549 14.0038L7.34409 13.3932L6.91381 13.6479ZM8.72411 14.2584L8.29383 14.0038C8.16533 14.2209 7.83399 14.2209 7.70549 14.0038L7.27521 14.2584L6.84493 14.5131C7.36065 15.3844 8.63867 15.3844 9.15439 14.5131L8.72411 14.2584ZM6.99967 1.33331V1.83331H8.99967V1.33331V0.833313H6.99967V1.33331ZM14.6663 6.99998H14.1663V7.66665H14.6663H15.1663V6.99998H14.6663ZM1.33301 7.66665H1.83301V6.99998H1.33301H0.833008V7.66665H1.33301ZM1.33301 7.66665H0.833008C0.833008 8.43637 0.832737 9.03871 0.865884 9.52453C0.899338 10.0148 0.968494 10.4229 1.1248 10.8003L1.58674 10.6089L2.04868 10.4176C1.95126 10.1824 1.89354 9.89586 1.86356 9.45646C1.83328 9.01257 1.83301 8.45006 1.83301 7.66665H1.33301ZM5.19273 12.6609L5.20134 12.161C4.36438 12.1466 3.92583 12.0934 3.58207 11.951L3.39073 12.4129L3.19939 12.8749C3.73604 13.0971 4.34726 13.1465 5.18411 13.1609L5.19273 12.6609ZM1.58674 10.6089L1.1248 10.8003C1.51386 11.7395 2.26011 12.4858 3.19939 12.8749L3.39073 12.4129L3.58207 11.951C2.88783 11.6634 2.33625 11.1118 2.04868 10.4176L1.58674 10.6089ZM14.6663 7.66665H14.1663C14.1663 8.45006 14.1661 9.01257 14.1358 9.45646C14.1058 9.89586 14.0481 10.1824 13.9507 10.4176L14.4126 10.6089L14.8745 10.8003C15.0309 10.4229 15.1 10.0148 15.1335 9.52453C15.1666 9.03871 15.1663 8.43637 15.1663 7.66665H14.6663ZM10.8066 12.6609L10.8152 13.1609C11.6521 13.1465 12.2633 13.0971 12.8 12.8749L12.6086 12.4129L12.4173 11.951C12.0735 12.0934 11.635 12.1466 10.798 12.161L10.8066 12.6609ZM14.4126 10.6089L13.9507 10.4176C13.6631 11.1118 13.1115 11.6634 12.4173 11.951L12.6086 12.4129L12.8 12.8749C13.7392 12.4858 14.4855 11.7395 14.8745 10.8003L14.4126 10.6089ZM8.99967 1.33331V1.83331C10.1005 1.83331 10.891 1.83384 11.5076 1.89247C12.1168 1.95039 12.5044 2.06147 12.8134 2.25083L13.0747 1.82451L13.3359 1.39819C12.8434 1.09636 12.2846 0.961838 11.6023 0.896958C10.9273 0.832785 10.0811 0.833313 8.99967 0.833313V1.33331ZM14.6663 6.99998H15.1663C15.1663 5.91852 15.1669 5.07231 15.1027 4.39738C15.0378 3.71502 14.9033 3.15628 14.6015 2.66374L14.1751 2.92498L13.7488 3.18623C13.9382 3.49525 14.0493 3.88287 14.1072 4.49204C14.1658 5.10865 14.1663 5.89915 14.1663 6.99998H14.6663ZM13.0747 1.82451L12.8134 2.25083C13.1947 2.48446 13.5152 2.80499 13.7488 3.18623L14.1751 2.92498L14.6015 2.66373C14.2854 2.14794 13.8517 1.71427 13.3359 1.39819L13.0747 1.82451ZM6.99967 1.33331V0.833313C5.91821 0.833313 5.07201 0.832785 4.39708 0.896958C3.71471 0.961838 3.15598 1.09636 2.66343 1.39819L2.92468 1.82451L3.18593 2.25083C3.49495 2.06147 3.88256 1.95039 4.49173 1.89247C5.10834 1.83384 5.89885 1.83331 6.99967 1.83331V1.33331ZM1.33301 6.99998H1.83301C1.83301 5.89915 1.83354 5.10865 1.89216 4.49204C1.95008 3.88287 2.06116 3.49525 2.25053 3.18623L1.82421 2.92498L1.39789 2.66374C1.09605 3.15628 0.961532 3.71502 0.896653 4.39738C0.83248 5.07231 0.833008 5.91852 0.833008 6.99998H1.33301ZM2.92468 1.82451L2.66343 1.39819C2.14763 1.71427 1.71397 2.14794 1.39789 2.66374L1.82421 2.92498L2.25053 3.18623C2.48415 2.80499 2.80469 2.48446 3.18593 2.25083L2.92468 1.82451ZM6.91381 13.6479L7.34409 13.3932C7.20873 13.1645 7.08991 12.9627 6.97438 12.8042C6.85269 12.6373 6.71311 12.4869 6.51958 12.3743L6.2682 12.8065L6.01682 13.2388C6.04843 13.2571 6.09149 13.2906 6.16624 13.3932C6.24715 13.5042 6.33857 13.6576 6.48354 13.9025L6.91381 13.6479ZM5.19273 12.6609L5.18411 13.1609C5.47684 13.1659 5.66226 13.1696 5.8036 13.1853C5.93567 13.1999 5.98686 13.2213 6.01682 13.2388L6.2682 12.8065L6.51958 12.3743C6.32441 12.2608 6.12132 12.2143 5.91366 12.1913C5.71527 12.1694 5.47551 12.1657 5.20134 12.161L5.19273 12.6609ZM9.08551 13.6479L9.51579 13.9025C9.66075 13.6576 9.75217 13.5042 9.83308 13.3932C9.90784 13.2906 9.9509 13.2571 9.9825 13.2388L9.73112 12.8065L9.47974 12.3743C9.28621 12.4869 9.14663 12.6373 9.02494 12.8042C8.90941 12.9627 8.79059 13.1645 8.65523 13.3932L9.08551 13.6479ZM10.8066 12.6609L10.798 12.161C10.5238 12.1657 10.2841 12.1694 10.0857 12.1913C9.87801 12.2143 9.67491 12.2608 9.47974 12.3743L9.73112 12.8065L9.9825 13.2388C10.0125 13.2213 10.0637 13.1999 10.1957 13.1853C10.3371 13.1696 10.5225 13.1659 10.8152 13.1609L10.8066 12.6609Z" fill="black"/>
<path d="M5.33301 7.33331H5.33901M7.99367 7.33331H7.99967M10.6603 7.33331H10.6663" stroke="black" stroke-width="1.33333" stroke-linecap="round" stroke-linejoin="round"/>
</g>
<defs>
<clipPath id="clip0_269_8982">
<rect width="16" height="16" fill="white"/>
</clipPath>
</defs>
</svg>
