<svg width="16" height="16" viewBox="0 0 16 16" fill="none" xmlns="http://www.w3.org/2000/svg">
<g clip-path="url(#clip0_269_8478)">
<path d="M14.6663 9.33192C14.647 11.6079 14.5207 12.8627 13.6933 13.6901C12.7167 14.6666 11.1449 14.6666 8.00141 14.6666C4.8579 14.6666 3.28614 14.6666 2.30957 13.6901C1.33301 12.7135 1.33301 11.1418 1.33301 7.99824C1.33301 4.85472 1.33301 3.28297 2.30957 2.3064C3.137 1.47897 4.39172 1.35261 6.66773 1.33331" stroke="#191815" stroke-width="1.5" stroke-linecap="round"/>
<path d="M14.6667 4.66665H9.33333C8.20807 4.66665 7.49786 5.17947 7.18531 5.47063C7.06234 5.58519 7.00086 5.64246 6.98834 5.65498C6.97582 5.6675 6.91854 5.72899 6.80399 5.85196C6.51282 6.1645 6 6.87471 6 7.99998V9.99998M14.6667 4.66665L11.3333 1.33331M14.6667 4.66665L11.3333 7.99998" stroke="#191815" stroke-width="1.5" stroke-linecap="round" stroke-linejoin="round"/>
</g>
<defs>
<clipPath id="clip0_269_8478">
<rect width="16" height="16" fill="white"/>
</clipPath>
</defs>
</svg>
