<svg width="17" height="16" viewBox="0 0 17 16" fill="none" xmlns="http://www.w3.org/2000/svg">
<circle cx="8.5" cy="8" r="2" stroke="#191815"/>
<path d="M9.67723 1.43481C9.4322 1.33331 9.12157 1.33331 8.50032 1.33331C7.87906 1.33331 7.56843 1.33331 7.32341 1.43481C6.9967 1.57013 6.73714 1.8297 6.60181 2.1564C6.54004 2.30554 6.51586 2.47898 6.5064 2.73197C6.4925 3.10377 6.30183 3.44791 5.97962 3.63393C5.65742 3.81996 5.26405 3.81301 4.93512 3.63915C4.71129 3.52085 4.549 3.45506 4.38895 3.43399C4.03835 3.38783 3.68378 3.48284 3.40323 3.69811C3.19282 3.85957 3.03751 4.12858 2.72688 4.6666C2.41625 5.20462 2.26094 5.47364 2.22632 5.73658C2.18016 6.08718 2.27517 6.44175 2.49044 6.7223C2.5887 6.85035 2.72679 6.958 2.94112 7.09266C3.25619 7.29064 3.45892 7.62789 3.4589 8C3.45888 8.37206 3.25616 8.70926 2.94111 8.90721C2.72676 9.0419 2.58865 9.14955 2.49038 9.27761C2.27511 9.55816 2.1801 9.91273 2.22626 10.2633C2.26087 10.5263 2.41619 10.7953 2.72682 11.3333C3.03744 11.8713 3.19276 12.1403 3.40317 12.3018C3.68371 12.5171 4.03829 12.6121 4.38888 12.5659C4.54892 12.5449 4.71121 12.4791 4.93502 12.3608C5.26397 12.1869 5.65736 12.18 5.97959 12.366C6.30182 12.552 6.4925 12.8962 6.5064 13.268C6.51586 13.521 6.54004 13.6944 6.60181 13.8436C6.73714 14.1703 6.9967 14.4298 7.32341 14.5652C7.56843 14.6666 7.87906 14.6666 8.50032 14.6666C9.12157 14.6666 9.4322 14.6666 9.67723 14.5652C10.0039 14.4298 10.2635 14.1703 10.3988 13.8436C10.4606 13.6944 10.4848 13.521 10.4942 13.268C10.5081 12.8962 10.6988 12.552 11.021 12.366C11.3432 12.1799 11.7366 12.1869 12.0656 12.3607C12.2894 12.479 12.4517 12.5448 12.6117 12.5659C12.9623 12.612 13.3169 12.517 13.5974 12.3018C13.8078 12.1403 13.9631 11.8713 14.2738 11.3333C14.5844 10.7952 14.7397 10.5262 14.7743 10.2633C14.8205 9.91269 14.7255 9.55812 14.5102 9.27757C14.4119 9.14951 14.2738 9.04186 14.0595 8.90718C13.7444 8.70923 13.5417 8.372 13.5417 7.99992C13.5418 7.62788 13.7445 7.2907 14.0595 7.09277C14.2739 6.95808 14.412 6.85042 14.5103 6.72235C14.7255 6.4418 14.8205 6.08723 14.7744 5.73663C14.7398 5.47368 14.5844 5.20467 14.2738 4.66665C13.9632 4.12862 13.8079 3.85961 13.5975 3.69816C13.3169 3.48289 12.9623 3.38788 12.6118 3.43404C12.4517 3.45511 12.2894 3.52088 12.0656 3.63918C11.7367 3.81304 11.3433 3.81999 11.021 3.63395C10.6988 3.44792 10.5081 3.10375 10.4942 2.73194C10.4848 2.47896 10.4606 2.30553 10.3988 2.1564C10.2635 1.8297 10.0039 1.57013 9.67723 1.43481Z" stroke="#191815"/>
</svg>
