<svg width="116" height="56" viewBox="0 0 116 56" fill="none" xmlns="http://www.w3.org/2000/svg">
<rect x="0.5" y="0.5" width="115" height="55" rx="27.5" stroke="#888272"/>
<g clip-path="url(#clip0_0_37634)">
<path d="M62.7729 16.012C62.7219 15.955 60.8844 16.0345 59.2854 17.77C57.6864 19.504 57.9324 21.493 57.9684 21.544C58.0044 21.595 60.2484 21.6745 61.6809 19.657C63.1134 17.6395 62.8239 16.0705 62.7729 16.012ZM67.7439 33.6115C67.6719 33.4675 64.2564 31.7605 64.5744 28.4785C64.8924 25.195 67.0869 24.295 67.1214 24.1975C67.1559 24.1 66.2259 23.0125 65.2404 22.462C64.5168 22.0739 63.716 21.8515 62.8959 21.811C62.7339 21.8065 62.1714 21.6685 61.0149 21.985C60.2529 22.1935 58.5354 22.8685 58.0629 22.8955C57.5889 22.9225 56.1789 22.1125 54.6624 21.898C53.6919 21.7105 52.6629 22.0945 51.9264 22.39C51.1914 22.684 49.7934 23.521 48.8154 25.7455C47.8374 27.9685 48.3489 31.4905 48.7149 32.5855C49.0809 33.679 49.6524 35.4715 50.6244 36.7795C51.4884 38.2555 52.6344 39.28 53.1129 39.628C53.5914 39.976 54.9414 40.207 55.8774 39.7285C56.6304 39.2665 57.9894 39.001 58.5264 39.0205C59.0619 39.04 60.1179 39.2515 61.1994 39.829C62.0559 40.1245 62.8659 40.0015 63.6774 39.6715C64.4889 39.34 65.6634 38.083 67.0344 35.5345C67.5549 34.3495 67.7919 33.709 67.7439 33.6115Z" fill="#191815"/>
<path d="M62.7729 16.012C62.7219 15.955 60.8844 16.0345 59.2854 17.77C57.6864 19.504 57.9324 21.493 57.9684 21.544C58.0044 21.595 60.2484 21.6745 61.6809 19.657C63.1134 17.6395 62.8239 16.0705 62.7729 16.012ZM67.7439 33.6115C67.6719 33.4675 64.2564 31.7605 64.5744 28.4785C64.8924 25.195 67.0869 24.295 67.1214 24.1975C67.1559 24.1 66.2259 23.0125 65.2404 22.462C64.5168 22.0739 63.716 21.8515 62.8959 21.811C62.7339 21.8065 62.1714 21.6685 61.0149 21.985C60.2529 22.1935 58.5354 22.8685 58.0629 22.8955C57.5889 22.9225 56.1789 22.1125 54.6624 21.898C53.6919 21.7105 52.6629 22.0945 51.9264 22.39C51.1914 22.684 49.7934 23.521 48.8154 25.7455C47.8374 27.9685 48.3489 31.4905 48.7149 32.5855C49.0809 33.679 49.6524 35.4715 50.6244 36.7795C51.4884 38.2555 52.6344 39.28 53.1129 39.628C53.5914 39.976 54.9414 40.207 55.8774 39.7285C56.6304 39.2665 57.9894 39.001 58.5264 39.0205C59.0619 39.04 60.1179 39.2515 61.1994 39.829C62.0559 40.1245 62.8659 40.0015 63.6774 39.6715C64.4889 39.34 65.6634 38.083 67.0344 35.5345C67.5549 34.3495 67.7919 33.709 67.7439 33.6115Z" fill="#191815"/>
</g>
<defs>
<clipPath id="clip0_0_37634">
<rect width="24" height="24" fill="white" transform="translate(46 16)"/>
</clipPath>
</defs>
</svg>
