<svg width="180" height="188" viewBox="0 0 180 188" fill="none" xmlns="http://www.w3.org/2000/svg">
<rect width="180" height="187.5" rx="8.57143" fill="#E0DAC2"/>
<path d="M63.333 80.4165C63.333 70.9884 63.333 66.2744 66.2619 63.3454C69.1909 60.4165 73.9049 60.4165 83.333 60.4165H96.6663C106.094 60.4165 110.808 60.4165 113.737 63.3454C116.666 66.2744 116.666 70.9884 116.666 80.4165V107.083C116.666 116.511 116.666 121.225 113.737 124.154C110.808 127.083 106.094 127.083 96.6663 127.083H83.333C73.9049 127.083 69.1909 127.083 66.2619 124.154C63.333 121.225 63.333 116.511 63.333 107.083V80.4165Z" stroke="#888272" stroke-width="5"/>
<path d="M116.326 107.083H76.3256C73.2257 107.083 71.6757 107.083 70.4041 107.424C66.9532 108.349 64.2577 111.044 63.333 114.495" stroke="#888272" stroke-width="5"/>
<path d="M76.667 77.0835H103.334" stroke="#888272" stroke-width="5" stroke-linecap="round"/>
<path d="M76.667 88.75H93.3337" stroke="#888272" stroke-width="5" stroke-linecap="round"/>
<path d="M93.3333 107.083V118.853C93.3333 119.772 93.3333 120.231 93.0172 120.417C92.701 120.602 92.2686 120.397 91.4037 119.986L87.263 118.019C86.9703 117.88 86.824 117.811 86.6667 117.811C86.5093 117.811 86.363 117.88 86.0704 118.019L81.9296 119.986C81.0648 120.397 80.6324 120.602 80.3162 120.417C80 120.231 80 119.772 80 118.853V108.584" stroke="#888272" stroke-width="5" stroke-linecap="round"/>
</svg>
