<svg width="116" height="56" viewBox="0 0 116 56" fill="none" xmlns="http://www.w3.org/2000/svg">
<rect x="0.5" y="0.5" width="115" height="55" rx="27.5" stroke="#888272"/>
<g clip-path="url(#clip0_0_37635)">
<path d="M69.5078 28.2242C69.5078 27.2409 69.4295 26.5234 69.2598 25.7793H58.2295V30.2173H64.7041C64.5736 31.3202 63.8687 32.9811 62.3022 34.0972L62.2802 34.2458L65.7678 36.996L66.0095 37.0205C68.2285 34.9344 69.5078 31.8649 69.5078 28.2242Z" fill="#4285F4"/>
<path d="M58.2296 39.9178C61.4016 39.9178 64.0645 38.8548 66.0095 37.0211L62.3023 34.0978C61.3102 34.8021 59.9787 35.2937 58.2296 35.2937C55.1228 35.2937 52.486 33.2076 51.546 30.3242L51.4083 30.3361L47.7818 33.193L47.7344 33.3272C49.6663 37.2337 53.6346 39.9178 58.2296 39.9178Z" fill="#34A853"/>
<path d="M51.5462 30.3238C51.2982 29.5797 51.1547 28.7824 51.1547 27.9586C51.1547 27.1347 51.2982 26.3375 51.5332 25.5934L51.5266 25.4349L47.8547 22.5322L47.7346 22.5904C46.9383 24.2115 46.4814 26.0319 46.4814 27.9586C46.4814 29.8853 46.9383 31.7056 47.7346 33.3267L51.5462 30.3238Z" fill="#FBBC05"/>
<path d="M58.2295 20.624C60.4356 20.624 61.9237 21.594 62.7722 22.4046L66.0878 19.1093C64.0515 17.1826 61.4015 16 58.2295 16C53.6346 16 49.6663 18.6841 47.7344 22.5906L51.533 25.5936C52.486 22.7102 55.1228 20.624 58.2295 20.624Z" fill="#EB4335"/>
</g>
<defs>
<clipPath id="clip0_0_37635">
<rect width="23.04" height="24" fill="white" transform="translate(46.4805 16)"/>
</clipPath>
</defs>
</svg>
