<svg width="22" height="19" viewBox="0 0 22 19" fill="none" xmlns="http://www.w3.org/2000/svg">
<path fill-rule="evenodd" clip-rule="evenodd" d="M1.5121 9.49981C1.5121 4.26022 5.75963 0.0126953 10.9992 0.0126953C16.2388 0.0126953 20.4863 4.26022 20.4863 9.49981V12.2172C20.5624 12.1903 20.6443 12.1757 20.7296 12.1757C21.1326 12.1757 21.4594 12.5024 21.4594 12.9054V14.8515C21.4594 15.2546 21.1326 15.5813 20.7296 15.5813C20.6414 15.5813 20.5568 15.5657 20.4786 15.537C20.4732 15.732 20.4642 15.9116 20.4489 16.0763C20.4097 16.4999 20.3249 16.8904 20.1155 17.2561C19.9762 17.4995 19.8008 17.7201 19.5951 17.9096C19.2833 18.197 18.922 18.3603 18.5219 18.4816C18.1438 18.5962 17.6743 18.6888 17.1181 18.7984L17.0458 18.8127C16.6661 18.8876 16.3212 18.9556 16.0342 18.9783C15.7254 19.0026 15.3772 18.9856 15.0437 18.7979C14.8462 18.6867 14.6736 18.5374 14.5346 18.3596C14.3037 18.0642 14.2265 17.727 14.1931 17.4166C14.1615 17.1239 14.1616 16.7629 14.1616 16.3577V11.2626C14.1616 10.9183 14.1615 10.6089 14.1863 10.3549C14.2127 10.0838 14.2732 9.79087 14.4516 9.51949C14.5986 9.29592 14.7956 9.10841 15.0287 8.97407C15.3158 8.80859 15.6151 8.77195 15.8854 8.77011C16.1351 8.76841 16.4349 8.79799 16.7618 8.83026L16.83 8.83698C17.3999 8.89316 17.8793 8.94042 18.2679 9.01738C18.5341 9.07012 18.7865 9.14171 19.0231 9.25514C18.8938 4.93483 15.3509 1.47225 10.9992 1.47225C6.64757 1.47225 3.10465 4.93483 2.97531 9.25514C3.21193 9.14171 3.46432 9.07012 3.73058 9.01738C4.11912 8.94042 4.59858 8.89316 5.16845 8.83698L5.23664 8.83026C5.56355 8.79799 5.86333 8.76841 6.11307 8.77011C6.38331 8.77195 6.68259 8.80859 6.96974 8.97407C7.20286 9.10841 7.39982 9.29592 7.54682 9.51949C7.72525 9.79087 7.78576 10.0838 7.81216 10.3549C7.83689 10.6089 7.83687 10.9183 7.83685 11.2626V16.3577C7.83688 16.7629 7.8369 17.1239 7.80537 17.4166C7.77192 17.727 7.69469 18.0642 7.4638 18.3596C7.32487 18.5374 7.15226 18.6867 6.95476 18.7979C6.6212 18.9856 6.27309 19.0026 5.96421 18.9783C5.67723 18.9556 5.33237 18.8876 4.9526 18.8127L4.88034 18.7984C4.32416 18.6888 3.85463 18.5962 3.47652 18.4816C3.07644 18.3603 2.71511 18.197 2.40331 17.9096C2.19759 17.7201 2.02228 17.4995 1.88295 17.2561C1.67352 16.8904 1.58877 16.4999 1.54951 16.0763C1.53425 15.9116 1.52522 15.732 1.51986 15.537C1.44159 15.5656 1.35704 15.5813 1.26884 15.5813C0.865795 15.5813 0.539062 15.2546 0.539062 14.8515V12.9054C0.539062 12.5024 0.865795 12.1757 1.26884 12.1757C1.35414 12.1757 1.43601 12.1903 1.5121 12.2172V9.49981ZM2.97166 14.5531C2.97166 15.1871 2.97238 15.6129 3.00284 15.9416C3.03218 16.2582 3.08461 16.4175 3.14955 16.5309C3.21562 16.6462 3.29776 16.7491 3.39241 16.8363C3.48186 16.9188 3.61399 16.9981 3.89992 17.0848C4.19998 17.1757 4.59734 17.2549 5.19736 17.3733C5.62707 17.458 5.88712 17.5081 6.0789 17.5232C6.1823 17.5314 6.22943 17.5255 6.24517 17.5223C6.26943 17.5076 6.29256 17.4876 6.31271 17.4622C6.31871 17.4504 6.33919 17.3997 6.35421 17.2603C6.37629 17.0553 6.37729 16.7743 6.37729 16.3212V11.2947C6.37729 10.9081 6.37648 10.671 6.35947 10.4963C6.3476 10.3744 6.33117 10.3302 6.32671 10.3205C6.30393 10.2861 6.2758 10.2598 6.24591 10.2416C6.23311 10.2381 6.19298 10.2302 6.10314 10.2296C5.9398 10.2285 5.71793 10.2494 5.34639 10.2861C4.73268 10.3466 4.32459 10.3876 4.01417 10.4491C3.7167 10.508 3.57875 10.5738 3.48604 10.6436C3.34997 10.7461 3.23373 10.8783 3.1461 11.0333C3.08337 11.1442 3.03135 11.304 3.00233 11.6257C2.97235 11.9581 2.97166 12.3896 2.97166 13.0296V14.5531ZM19.0268 13.0296C19.0268 12.3896 19.0261 11.9581 18.9961 11.6257C18.9671 11.304 18.9151 11.1442 18.8523 11.0333C18.7647 10.8783 18.6485 10.7461 18.5124 10.6436C18.4197 10.5738 18.2817 10.508 17.9843 10.4491C17.6738 10.3876 17.2658 10.3466 16.652 10.2861C16.2805 10.2494 16.0586 10.2285 15.8953 10.2296C15.8055 10.2302 15.7653 10.2381 15.7525 10.2416C15.7226 10.2598 15.6945 10.2861 15.6717 10.3205C15.6673 10.3302 15.6508 10.3744 15.639 10.4963C15.622 10.671 15.6211 10.9081 15.6211 11.2947V16.3212C15.6211 16.7743 15.6221 17.0553 15.6442 17.2603C15.6592 17.3997 15.6797 17.4504 15.6857 17.4622C15.7059 17.4876 15.729 17.5076 15.7533 17.5223C15.769 17.5255 15.8161 17.5314 15.9195 17.5232C16.1113 17.5081 16.3714 17.458 16.8011 17.3733C17.4011 17.2549 17.7985 17.1757 18.0985 17.0848C18.3844 16.9981 18.5166 16.9188 18.606 16.8363C18.7007 16.7491 18.7828 16.6462 18.8489 16.5309C18.9138 16.4175 18.9663 16.2582 18.9956 15.9416C19.0261 15.6129 19.0268 15.1871 19.0268 14.5531V13.0296Z" fill="#191815"/>
</svg>
