<svg width="200" height="200" viewBox="0 0 200 200" fill="none" xmlns="http://www.w3.org/2000/svg">
<path d="M99.9941 200.003C155.223 200.003 199.994 155.231 199.994 100.003C199.994 44.7745 155.223 0.00292969 99.9941 0.00292969C44.7657 0.00292969 -0.00585938 44.7745 -0.00585938 100.003C-0.00585938 155.231 44.7657 200.003 99.9941 200.003Z" fill="#191815"/>
<path d="M74.9878 105.46L146.297 105.46C146.861 105.482 147.424 105.372 147.952 105.135C148.479 104.897 148.96 104.539 149.367 104.08C149.773 103.621 150.096 103.071 150.317 102.463C150.538 101.856 150.651 101.202 150.651 100.542C150.651 99.8815 150.538 99.2281 150.317 98.6202C150.096 98.0124 149.773 97.4627 149.367 97.0038C148.96 96.5449 148.479 96.1862 147.952 95.9491C147.424 95.712 146.861 95.6014 146.297 95.6237L74.9878 95.6237C74.9783 95.6206 74.9682 95.6206 74.9588 95.6237C69.5541 95.6237 64.3709 93.1154 60.5493 88.6506C56.7276 84.1857 54.5807 78.1301 54.5807 71.8158C54.5807 65.5016 56.7276 59.4459 60.5493 54.9811C64.3709 50.5163 69.5541 48.0079 74.9588 48.0079L146.297 48.0079C146.861 48.0303 147.424 47.9196 147.952 47.6826C148.479 47.4455 148.96 47.0868 149.367 46.6279C149.773 46.169 150.096 45.6193 150.317 45.0114C150.538 44.4036 150.651 43.7501 150.651 43.0899C150.651 42.4296 150.538 41.7761 150.317 41.1683C150.096 40.5604 149.773 40.0107 149.367 39.5518C148.96 39.0929 148.479 38.7342 147.952 38.4972C147.424 38.2601 146.861 38.1494 146.297 38.1718L74.9878 38.1718C67.3516 38.1718 60.0281 41.7158 54.6285 48.0242C49.2288 54.3327 46.1954 62.8887 46.1954 71.8102C46.1954 80.7316 47.1915 92.3118 52.5911 98.6202C57.9907 104.929 67.3516 105.449 74.9878 105.449L74.9878 105.46Z" fill="#FDFDFC"/>
<path d="M153.666 130.068C153.657 121.681 152.541 110.892 147.138 104.961C141.734 99.0304 132.483 98.4425 124.841 98.4326L53.4219 98.4326C52.3289 98.4733 51.2931 98.9784 50.533 99.8413C49.7729 100.704 49.348 101.858 49.348 103.058C49.348 104.258 49.7729 105.411 50.533 106.274C51.2931 107.137 52.3289 107.642 53.4219 107.683L124.841 107.683C124.85 107.686 124.86 107.686 124.87 107.683C130.281 107.687 135.468 110.05 139.292 114.252C143.115 118.454 145.261 124.151 145.257 130.089C145.253 136.028 143.1 141.721 139.271 145.917C135.442 150.113 130.252 152.468 124.841 152.464L53.4219 152.464C52.3048 152.464 51.2335 152.951 50.4436 153.818C49.6538 154.685 49.21 155.86 49.21 157.086C49.21 158.312 49.6538 159.488 50.4436 160.355C51.2335 161.222 52.3048 161.709 53.4219 161.709L124.841 161.709C132.484 161.699 139.811 158.362 145.215 152.43C150.619 146.498 153.658 138.456 153.666 130.068Z" fill="#FDFDFC"/>
<line x1="149.639" y1="38.1861" x2="149.532" y2="131.582" stroke="#FDFDFC" stroke-width="7.79221"/>
<line x1="50.0914" y1="68.2972" x2="50.2011" y2="161.717" stroke="#FDFDFC" stroke-width="7.79221"/>
<path d="M86.0759 145.528V145.424C88.0759 144.671 88.3876 144.489 88.3876 142.23V127.295H86.8292C84.5954 127.295 82.959 129.061 82.1538 131.269H82.0499L82.5175 126.957H97.011L97.4785 131.269H97.3746C96.5694 129.061 94.933 127.295 92.6993 127.295H91.2188V142.23C91.2188 144.489 91.5045 144.671 93.5045 145.424V145.528H86.0759ZM106.596 145.788C105.167 145.788 104.7 144.515 104.752 143.191L104.726 143.165C104.05 144.074 102.466 145.736 100.18 145.736C98.0763 145.736 96.8036 144.515 96.8036 142.827C96.8036 140.541 99.5309 138.827 104.83 137.269L104.882 135.554C104.933 134.308 104.362 133.009 102.959 133.009C101.219 133.009 100.18 134.983 99.8945 137.139L97.7906 135.606C98.6477 134.334 100.388 132.775 103.141 132.775C105.843 132.775 107.271 134.411 107.219 136.308L107.037 143.58C107.011 144.1 107.479 144.463 107.765 144.463C108.336 144.463 108.778 143.918 109.063 143.347L109.167 143.398C108.83 144.489 108.024 145.788 106.596 145.788ZM101.375 144.619C102.804 144.619 103.791 143.814 104.7 142.827L104.83 137.502C100.596 138.879 99.401 140.411 99.401 142.308C99.401 143.84 100.18 144.619 101.375 144.619ZM109.387 145.528V145.424C110.92 144.775 111.283 144.541 111.283 142.463V130.282C111.283 127.71 110.764 127.554 109.361 126.931V126.827C110.816 126.723 112.27 126.463 113.725 126.022V142.463C113.725 144.541 114.063 144.775 115.621 145.424V145.528H109.387ZM115.945 145.528V145.424C117.478 144.775 117.842 144.541 117.842 142.463V130.282C117.842 127.71 117.322 127.554 115.919 126.931V126.827C117.374 126.723 118.829 126.463 120.283 126.022V139.476L124.673 135.606C125.062 135.269 125.218 134.957 125.218 134.671C125.218 134.1 124.595 133.606 123.738 133.191V133.087H128.699V133.191C126.958 134.178 126.231 134.593 125.062 135.632L122.413 137.944L126.906 143.632C127.478 144.385 128.387 145.087 129.192 145.424V145.528H125.4L120.725 139.502H120.283V142.463C120.283 144.541 120.621 144.775 122.179 145.424V145.528H115.945Z" fill="#FDFDFC"/>
<path d="M62.7601 81.543V81.4391C64.7861 80.6858 65.0718 80.504 65.0718 78.2443V66.2702C65.0718 64.0105 64.7861 63.8287 62.7601 63.0754V62.9715H70.838C74.9679 62.9715 76.916 65.0495 76.916 67.2573C76.916 69.2832 74.916 70.556 72.4484 71.1014V71.1534C75.7471 71.5949 77.877 73.3871 77.877 76.3222C77.877 79.1014 75.4614 81.543 70.838 81.543H62.7601ZM70.5004 81.2053H70.6562C73.2017 81.2053 74.89 79.8287 74.89 76.5819C74.89 73.2832 73.0978 71.517 70.6562 71.6209L67.903 71.7508V80.0884C67.903 80.6079 68.7601 81.1014 70.5004 81.2053ZM67.903 71.3352H70.2406C72.3186 71.3352 74.0588 69.6469 74.0588 67.2832C74.0588 65.0235 72.7082 63.2832 70.3445 63.2832H67.903V71.3352ZM85.7755 81.8027C81.8794 81.8027 79.6976 78.8676 79.6976 75.4391C79.6976 71.9845 81.8794 68.7897 85.7755 68.7897C89.6716 68.7897 91.8275 71.7767 91.8275 75.2053C91.8275 78.6599 89.6716 81.8027 85.7755 81.8027ZM86.1651 81.543C87.8275 81.543 89.308 80.0365 89.308 76.478C89.308 73.1793 88.0612 69.0495 85.3859 69.0495C83.7496 69.0495 82.2431 70.556 82.2431 74.1404C82.2431 77.4131 83.5158 81.543 86.1651 81.543ZM99.1317 81.8027C95.2356 81.8027 93.0537 78.8676 93.0537 75.4391C93.0537 71.9845 95.2356 68.7897 99.1317 68.7897C103.028 68.7897 105.184 71.7767 105.184 75.2053C105.184 78.6599 103.028 81.8027 99.1317 81.8027ZM99.5213 81.543C101.184 81.543 102.664 80.0365 102.664 76.478C102.664 73.1793 101.417 69.0495 98.742 69.0495C97.1057 69.0495 95.5992 70.556 95.5992 74.1404C95.5992 77.4131 96.8719 81.543 99.5213 81.543ZM105.716 81.543V81.4391C107.248 80.7897 107.612 80.556 107.612 78.478V66.2962C107.612 63.7248 107.092 63.5689 105.69 62.9456V62.8417C107.144 62.7378 108.599 62.478 110.054 62.0365V75.491L114.443 71.6209C114.833 71.2832 114.989 70.9715 114.989 70.6858C114.989 70.1144 114.365 69.6209 113.508 69.2053V69.1014H118.469V69.2053C116.729 70.1923 116.002 70.6079 114.833 71.6469L112.183 73.9586L116.677 79.6469C117.248 80.4001 118.157 81.1014 118.963 81.4391V81.543H115.17L110.495 75.517H110.054V78.478C110.054 80.556 110.391 80.7897 111.95 81.4391V81.543H105.716Z" fill="#FDFDFC"/>
</svg>
