<svg width="412" height="256" viewBox="0 0 412 256" fill="none" xmlns="http://www.w3.org/2000/svg">
<path d="M10.6433 97.5L9.03906 112.63C9.03906 112.63 42.9823 110.662 55.2056 106.759C55.2056 106.759 70.0892 123.743 105.873 125.406L107.67 118.767L115.656 119.55L117.331 112.932L10.6433 97.5Z" fill="white"/>
<path d="M137.232 19.5982L122.398 116.198C122.094 118.179 120.114 119.537 118.026 119.187L67.525 110.77L55.3396 108.743C55.2551 108.734 55.1802 108.718 55.1045 108.71L39.185 107.03C39.0256 107.004 38.8533 107.004 38.6819 107.005L35.0942 107.079L8.50254 107.641C6.19715 107.684 4.38279 105.783 4.68787 103.622L17.6605 11.6759C17.8609 10.262 18.9404 9.09088 20.3965 8.71725L52.771 0.356576C53.0559 0.286568 53.3377 0.243184 53.6234 0.245467C53.8069 0.227965 53.9873 0.237864 54.166 0.256127L65.1471 1.38387C65.2791 1.39756 65.4112 1.41127 65.5416 1.44247L85.1695 5.48849L134.309 15.6252C136.24 16.0225 137.51 17.759 137.232 19.5982Z" fill="#C26A53"/>
<path d="M34.2796 89.9891C34.3737 88.9573 34.4413 87.9201 34.4518 86.8836C34.4623 85.8677 34.5484 84.7019 34.3142 83.7051C33.828 81.6322 30.9567 82.2357 29.3436 82.3323C27.0704 82.4685 24.8061 82.7486 22.553 83.0575C21.4244 83.212 20.2999 83.3817 19.177 83.5727C18.2964 83.7226 17.2314 83.7873 16.4844 84.3032C15.5652 84.9371 15.4597 86.0237 15.314 87.0054C15.1369 88.2024 14.9599 89.3986 14.7787 90.5941C14.596 91.8025 14.3457 92.9774 14.0744 94.1698C13.7806 95.4627 13.6526 96.7799 13.5013 98.0926C13.4256 98.7508 13.9641 99.1009 14.5043 99.1039C14.5799 99.1404 14.6628 99.1716 14.7546 99.1952C17.006 99.7728 19.2285 98.9943 21.4816 98.7934C23.7049 98.5956 25.9418 98.6701 28.1708 98.6161C29.2124 98.591 30.3111 98.5887 31.3399 98.4129C32.5481 98.2067 32.9466 97.5127 33.2057 96.4466C33.7233 94.3228 34.0823 92.1624 34.2796 89.9891Z" fill="#E4C0A3"/>
<path d="M85.1699 5.48947L67.5245 110.771L55.3391 108.743C55.2546 108.734 55.1798 108.718 55.1041 108.71L39.1845 107.03C39.0251 107.005 38.8529 107.005 38.6814 107.005L35.0938 107.079C40.3437 76.0176 50.1198 18.53 53.6238 0.246447C53.8073 0.228945 53.9876 0.238832 54.1663 0.257095L65.1475 1.38485C65.2795 1.39854 65.4115 1.41224 65.5419 1.44344L85.1699 5.48947Z" fill="#39343E"/>
<path d="M63.0229 3.37381C61.2439 16.5278 59.1953 29.649 56.9817 42.7444C54.7922 55.6959 52.7613 68.6703 50.699 81.6409C49.527 89.01 48.2262 96.3586 47.6273 103.792C47.5203 105.119 49.4554 105.253 49.75 104.01C51.2907 97.5214 52.2598 90.9535 53.2974 84.3788C54.3326 77.8201 55.367 71.2614 56.4021 64.7019C58.4483 51.7336 60.3142 38.7402 62.3813 25.7742C63.5566 18.4005 64.8131 11.0435 66.1485 3.69418C66.489 1.81689 63.2813 1.46608 63.0229 3.37381Z" fill="#605F69"/>
<path d="M52.143 232.808C51.7735 231.453 51.1247 230.204 50.385 229C50.0549 228.47 49.5913 227.935 49.3321 227.367C48.9393 226.469 49.4826 225.56 49.7539 224.695C50.3254 222.877 50.7995 220.913 50.938 218.96C51.0104 217.912 50.9774 216.871 50.8075 215.861C50.7391 215.375 50.6321 214.895 50.4864 214.42C50.4453 214.281 50.3946 214.14 50.3439 214C50.0879 213.233 49.7627 212.496 49.4568 211.752C49.1791 211.092 48.9119 210.432 48.7139 209.744C48.4603 208.879 48.2921 208.014 48.1915 207.146C48.1158 206.56 48.0586 205.977 48.0216 205.386C48.061 205.373 48.1021 205.35 48.1512 205.337C49.8102 204.605 48.7259 202.328 47.0291 202.893L46.3457 203.112C46.7884 202.246 46.4962 201.052 45.2212 201.02C43.7835 200.989 42.3716 201.476 40.9758 201.748C39.481 202.046 37.9742 202.288 36.4609 202.494C33.493 202.902 30.4978 203.136 27.4945 203.188C21.6988 203.288 15.8862 202.699 10.2145 201.549C9.74122 201.013 8.63441 200.926 8.22147 201.777C7.50667 203.265 6.78222 204.752 6.05776 206.238C5.47899 207.451 4.89138 208.663 4.2941 209.874C3.97937 210.536 3.65497 211.198 3.32977 211.868C2.99088 212.574 2.64314 213.277 2.30426 213.983C2.28011 214.025 2.26642 214.06 2.24308 214.103C1.93961 214.748 1.60636 215.41 1.28116 216.08C-0.0429876 218.877 -1.18522 221.927 -0.00756973 224.881C0.740232 226.763 2.09336 228.03 2.02977 230.162C1.96859 232.357 1.70618 234.559 1.5315 236.742C1.50494 237.055 1.47837 237.369 1.45262 237.681C1.38581 238.514 1.30772 239.354 1.24091 240.187C1.17169 240.955 1.11293 241.716 1.05336 242.486C0.988158 243.22 0.922152 243.962 0.86661 244.696C0.715279 246.512 0.563948 248.329 0.411811 250.144C0.373978 250.555 0.551068 251.007 0.934226 251.245C2.31472 252.109 4.10011 252.355 5.6907 252.717C7.48655 253.118 9.28804 253.474 11.0944 253.786C14.6418 254.394 18.2303 254.817 21.8228 255.123C29.1108 255.745 36.4375 255.866 43.7529 255.913C45.222 255.92 46.9035 256.156 48.3436 255.834C50.0678 255.451 50.484 254.069 50.6345 252.596C50.8293 250.739 51.0329 248.883 51.2559 247.019L51.2567 247.01C51.3517 246.099 51.4555 245.199 51.5602 244.289C51.635 243.638 51.7107 242.978 51.796 242.319L51.8113 242.185C51.924 241.285 52.0665 240.379 52.1921 239.454L52.1929 239.445C52.5044 237.222 52.7378 234.944 52.143 232.808Z" fill="#39343E"/>
<path d="M73.4793 91.5409C73.1009 90.3653 71.9249 89.9132 70.909 89.3334C68.8258 88.1341 66.9358 86.6731 65.2132 85.0446C63.6926 83.6072 62.0884 81.892 60.1895 80.9149C58.1393 79.8663 55.7872 80.2163 53.6621 80.8593C51.1925 81.5982 48.7648 82.5669 46.3451 83.4565C40.9438 85.4578 35.6175 87.7529 30.6445 90.5882C30.1824 90.85 29.9474 91.2077 29.8717 91.5653C28.5363 93.8687 27.192 96.1554 25.8985 98.474C24.6468 100.698 23.2437 102.834 22.9668 105.391C22.8324 106.63 22.8493 107.813 22.4211 109.005C22.0097 110.165 21.4044 111.244 20.9424 112.372C19.9845 114.707 20.0521 116.994 20.7323 119.384C21.3955 121.751 22.2279 124.055 22.7736 126.461C23.3282 128.899 23.7814 131.368 24.1259 133.847C24.6806 137.857 24.9913 141.899 25.1764 145.941C24.1179 153.057 22.9588 160.164 21.5308 167.209C20.6236 171.68 19.5313 176.103 18.2377 180.487C18.0952 181.011 17.935 181.535 17.7757 182.059C17.0198 184.529 16.1883 186.982 15.2723 189.405C14.5832 191.24 13.7517 193.209 14.1212 195.194C14.4488 196.958 15.6498 197.974 17.1373 198.665C17.1711 198.681 17.1961 198.705 17.2211 198.721C19.1199 199.793 21.6902 200.151 23.8152 200.571C26.0079 201.001 28.2256 201.278 30.4521 201.421C32.9804 201.58 35.5257 201.564 38.0629 201.373C40.2725 201.214 42.9015 201.103 44.9767 200.278C47.3207 199.349 47.1187 197.053 47.1275 195.036V194.782C47.1444 191.169 47.1694 187.564 47.1863 183.95C47.1943 182.759 47.1943 181.56 47.2032 180.368C47.237 174.888 47.2869 169.409 47.2869 163.921C47.2869 161.293 47.2531 158.656 47.2869 156.019C47.3038 154.931 47.3376 153.843 47.4382 152.756C48.0685 152.049 48.6312 151.295 49.1101 150.484C50.782 147.688 51.5459 144.552 51.8236 141.367C52.1593 137.515 51.8067 133.529 51.983 129.629C52.2011 129.749 52.4281 129.86 52.6471 129.963C53.7982 130.51 54.6804 130.351 55.6962 129.661C57.2756 128.588 58.8549 127.318 59.6196 125.579C60.3674 123.855 60.3674 121.823 60.4511 119.956C61.9298 119.551 62.7275 118.248 63.3159 117.002C64.8284 113.794 65.6769 110.53 63.8029 107.281C61.9209 104.018 59.6027 100.944 57.5364 97.7755C56.6541 96.4172 55.8395 94.6145 54.3946 93.7013C52.9835 92.8118 51.2867 93.0743 49.7243 93.3832C51.7657 92.4145 53.799 91.4458 55.8403 90.4688C58.5957 93.3673 62.6615 95.3686 66.6855 95.6623C68.7268 95.8054 71.4653 95.5033 72.8683 93.9151C73.4624 93.2402 73.7481 92.3978 73.4793 91.5409Z" fill="#E8AB99"/>
<path d="M46.7223 184.035C45.0842 184.368 43.463 184.789 41.8499 185.226C38.7589 186.052 35.692 186.894 32.5003 187.29C29.7281 187.624 26.4519 187.806 23.8479 186.647C22.5624 186.068 21.7558 184.575 20.8655 183.574C19.9584 182.566 19.1349 181.501 18.2358 180.484C18.0933 181.009 17.9331 181.533 17.7737 182.057C17.0179 184.527 16.1863 186.98 15.2703 189.403C14.5813 191.238 13.7498 193.207 14.1192 195.192C14.4468 196.955 15.6478 197.972 17.1354 198.663C17.1692 198.679 17.1941 198.703 17.2191 198.719C19.118 199.791 21.6882 200.148 23.8133 200.569C26.006 200.998 28.2236 201.276 30.4501 201.419C35.0368 199.982 39.5896 198.243 43.9669 196.353C45.0504 195.884 46.1008 195.36 47.1255 194.781C47.1424 191.168 47.1674 187.562 47.1843 183.948C47.0338 183.972 46.8736 184.004 46.7223 184.035Z" fill="#DB9284"/>
<path d="M57.272 116.769C56.2417 115.572 55.1727 114.404 54.0667 113.268C52.9623 112.135 51.833 111.018 50.6811 109.928C49.6958 108.996 48.8112 107.599 47.2238 107.98C45.7604 108.332 44.3042 109.238 42.9914 109.925C41.466 110.723 39.972 111.565 38.4973 112.443C35.6156 114.162 32.9689 116.071 30.3045 118.069C29.5575 118.629 30.4405 119.571 31.206 119.128C36.3384 116.164 41.7276 113.555 47.0346 110.883C47.7631 110.517 47.9813 110.235 48.6429 110.792C49.2096 111.269 49.7554 111.772 50.2979 112.272C51.3138 113.21 52.2749 114.2 53.2151 115.205C54.1553 116.21 55.0689 117.238 55.9519 118.288C56.8019 119.298 57.5103 120.263 58.7741 120.823C59.1073 120.971 59.4567 120.651 59.4124 120.338C59.2104 118.89 58.2171 117.867 57.272 116.769Z" fill="#DB9284"/>
<path d="M52.8958 123.486C52.5803 123.148 52.0917 123.101 51.7077 123.365C51.4493 123.541 51.1853 123.721 50.9253 123.909C50.8368 123.775 50.7514 123.639 50.6613 123.505C50.3908 123.104 50.0817 122.732 49.7686 122.359C49.4643 121.998 49.1512 121.643 48.8316 121.294C48.636 121.082 48.4251 120.895 48.2038 120.72C48.8904 119.476 48.8018 118.224 48.6175 116.872C48.5048 116.043 47.0132 116.027 47.0293 116.902C47.0527 118.128 46.8474 119.056 46.0545 120.038C45.3405 120.921 44.4084 121.631 43.5149 122.345C42.5047 123.152 41.4421 123.909 40.3289 124.585C39.7542 124.934 39.1923 125.299 38.6256 125.657C37.9817 126.065 37.4391 126.418 37.1292 127.118C36.9046 127.626 37.2636 128.042 37.7329 128.175C37.9012 128.974 38.5467 129.508 39.0925 130.194C39.7034 130.961 40.2822 131.756 40.8231 132.568C41.9702 134.292 42.8887 136.163 43.5994 138.084C44.2981 139.97 44.7384 141.936 45.1087 143.9C45.4895 145.92 45.8195 148.107 45.669 150.159C45.6376 150.586 46.2799 150.644 46.362 150.23C46.787 148.088 47.1726 146.058 47.1275 143.861C47.0833 141.682 46.6124 139.573 45.9475 137.492C45.289 135.433 44.3875 133.443 43.2573 131.575C42.6914 130.641 42.0837 129.735 41.3979 128.876C40.9954 128.371 40.5841 127.758 40.0592 127.328C40.0874 127.309 40.1156 127.29 40.143 127.27C40.7515 126.844 41.3464 126.408 41.9267 125.95C43.0569 125.056 44.2571 124.239 45.4355 123.404C45.9064 123.07 46.3821 122.717 46.8241 122.334C46.8273 122.337 46.8289 122.342 46.8321 122.346C46.9102 122.441 47.002 122.529 47.0849 122.621C47.4036 122.971 47.7135 123.328 48.0162 123.69C48.467 124.231 48.9137 124.775 49.3565 125.322C49.2035 125.507 49.0506 125.692 48.9298 125.899C48.566 126.522 48.3599 127.243 48.4469 127.962C48.5435 128.762 49.0796 129.334 49.829 129.66C50.3715 129.896 51.0308 129.376 50.9165 128.834C50.9052 128.781 50.8979 128.729 50.8891 128.676C50.8883 128.674 50.8875 128.667 50.8867 128.663C50.8851 128.632 50.8818 128.573 50.8818 128.564C50.881 128.515 50.8794 128.466 50.8786 128.417C50.8851 128.323 50.8537 127.701 50.8456 127.587C50.8448 127.58 50.8432 127.57 50.8432 127.561C50.84 127.564 50.8384 127.548 50.8392 127.509C50.8384 127.484 50.8408 127.459 50.8335 127.443C50.8376 127.452 50.8376 127.461 50.8392 127.471C50.8448 127.362 50.8553 127.254 50.873 127.147C50.8907 127.038 50.9165 126.929 50.9382 126.821C50.9382 126.819 50.939 126.816 50.9398 126.813C50.9495 126.78 50.968 126.705 50.972 126.695C51.0042 126.598 51.0412 126.503 51.0823 126.409C51.0815 126.412 51.1113 126.347 51.1314 126.302C51.1483 126.274 51.1748 126.227 51.1805 126.218C51.323 126.002 51.4848 125.798 51.6578 125.603C51.7359 125.515 51.8164 125.428 51.8993 125.345C51.9146 125.332 51.9597 125.29 51.983 125.269C52.0273 125.23 52.0724 125.19 52.1166 125.151C52.3292 124.966 52.5473 124.788 52.7662 124.61C53.1011 124.336 53.2049 123.818 52.8958 123.486Z" fill="#DB9284"/>
<path d="M50.8386 127.508C50.8394 127.527 50.8425 127.543 50.8425 127.561C50.847 127.556 50.8493 127.516 50.8386 127.47C50.8386 127.472 50.8379 127.474 50.8379 127.477C50.8379 127.494 50.8386 127.497 50.8386 127.508Z" fill="#DB9284"/>
<path d="M60.0261 114.085C59.37 112.038 58.3155 110.145 57.0228 108.396C55.6962 106.602 54.1153 105.035 52.4635 103.511C50.8915 102.061 49.3178 100.081 47.2563 99.2475C47.179 99.2163 47.1058 99.2117 47.0325 99.2026C47.018 99.2003 47.0051 99.1934 46.9898 99.1919C46.985 99.1912 46.981 99.1919 46.9762 99.1912C46.9504 99.1897 46.9254 99.1866 46.8997 99.1881C45.4628 99.0679 44.1749 99.6797 42.8902 100.222C41.5153 100.801 40.1574 101.418 38.8188 102.069C36.1994 103.343 33.6099 104.791 31.2538 106.464C30.5849 106.939 31.2659 108.064 32.0282 107.678C34.5992 106.375 37.1485 105.056 39.7758 103.854C41.0525 103.27 42.3461 102.717 43.6533 102.196C44.7062 101.777 45.7752 101.438 46.6807 100.821C48.2939 101.892 49.9078 102.833 51.3229 104.17C52.7791 105.546 54.0895 107.1 55.2173 108.727C56.3024 110.293 57.195 112.019 57.8036 113.801C58.0998 114.668 58.3123 115.559 58.4459 116.462C58.5876 117.425 58.7719 118.504 58.4451 119.445C58.0241 120.655 59.9182 121.358 60.4124 120.155C61.2013 118.237 60.633 115.98 60.0261 114.085Z" fill="#DB9284"/>
<path d="M49.292 92.7261C46.6405 93.1667 44.0075 93.6872 41.3552 94.1248C40.052 94.3401 38.7568 94.5867 37.4681 94.8705C36.1866 95.1528 34.8979 95.4275 33.783 96.1139C33.3049 96.4084 33.6075 97.1131 34.1098 97.1701C35.4364 97.3223 36.7734 97.0004 38.0541 96.6999C39.3259 96.4016 40.5873 96.0926 41.8446 95.7441C44.4172 95.0303 47.01 94.3987 49.5834 93.688C50.1678 93.5267 49.8781 92.6287 49.292 92.7261Z" fill="#DB9284"/>
<path d="M55.2203 199.222C54.5329 197.644 53.8052 196.09 53.1178 194.512C52.44 192.935 51.7807 191.361 51.2317 189.743C50.7995 188.435 50.6329 186.812 49.5446 185.816C48.8281 185.156 47.306 184.611 46.8512 185.828C46.559 186.629 46.4898 187.559 46.2885 188.396C46.1766 188.872 46.0849 189.341 45.9915 189.819C43.2096 190.769 40.4212 191.611 37.492 192.095C34.1369 192.634 30.7433 192.845 27.3431 192.694C24.2086 192.562 20.5059 192.471 17.7312 190.949C17.1202 190.616 16.4392 190.23 16.3032 189.504C16.1672 188.777 16.6123 187.731 16.7797 187.017C17.2265 185.204 17.5927 183.347 18.1514 181.563C18.2415 181.275 18.1731 180.96 17.8986 180.77C16.4658 179.784 14.5613 179.994 13.122 180.884C11.335 181.982 10.3997 183.889 9.2848 185.534C6.72263 189.305 3.92703 192.871 0.922942 196.334C0.625915 196.673 0.678236 197.22 0.955141 197.546C2.04746 198.841 3.33619 200.002 4.77304 200.952C4.40034 201.699 4.07353 202.469 3.99304 203.173C3.83929 204.43 4.99279 205.271 5.84765 206.053C5.91688 206.115 5.9861 206.175 6.05533 206.236C7.0583 207.143 8.10554 207.999 9.18579 208.814C11.3753 210.446 13.832 211.908 16.4561 212.827C21.8252 214.696 27.8744 214.64 33.3763 213.356C38.664 212.112 43.4953 209.694 48.189 207.144C48.342 207.06 48.4949 206.977 48.647 206.894C51.1585 206.303 54.0531 205.202 55.4449 203.224C56.3496 201.937 55.7878 200.517 55.2203 199.222Z" fill="#39343E"/>
<path d="M51.255 247.01L51.2542 247.019C50.991 247.064 50.7285 247.11 50.4653 247.155C48.1672 247.55 45.8699 247.937 43.5588 248.277C35.6155 249.456 27.5531 250.09 19.5245 249.265C13.1839 248.622 6.68551 247.279 0.863281 244.695C0.918823 243.961 0.984829 243.219 1.05003 242.485C4.07827 244.042 7.2852 245.292 10.6064 246.129C18.0651 248.005 25.9489 247.849 33.5629 247.124C37.5386 246.747 41.4828 246.151 45.3998 245.461C47.3968 245.107 49.398 244.726 51.391 244.326C51.4498 244.314 51.4989 244.301 51.5577 244.289C51.4538 245.198 51.3508 246.099 51.255 247.01Z" fill="#5E6181"/>
<path d="M50.9377 218.96C49.7423 219.559 48.5091 220.073 47.2478 220.503C38.989 223.345 29.5863 222.849 21.0184 221.734C16.4937 221.152 12.0898 220.104 7.8115 218.627C5.58902 217.866 3.39311 217.036 1.2793 216.08C1.6045 215.409 1.93855 214.749 2.24122 214.103C4.7253 215.494 7.30599 216.707 10.0581 217.595C14.1722 218.919 18.5093 219.555 22.8311 219.908C27.1441 220.252 31.5222 220.449 35.8464 220.116C39.7754 219.816 43.6923 219.037 47.3347 217.579C48.5462 217.089 49.7005 216.513 50.8065 215.86C50.9771 216.87 51.0101 217.911 50.9377 218.96Z" fill="#5E6181"/>
<path d="M50.3444 213.996C48.3577 214.839 46.3502 215.607 44.304 216.309C40.499 217.606 36.7133 217.821 32.6933 217.752C28.7958 217.695 24.8998 217.457 21.0424 216.889C15.0447 216.002 8.90375 214.37 3.33105 211.867C3.65626 211.196 3.98065 210.535 4.29539 209.872C6.72474 211.16 9.24344 212.249 11.9642 213.078C19.0349 215.257 26.6989 216.098 34.1117 215.885C36.0178 215.828 37.9441 215.764 39.7963 215.341C41.708 214.906 43.5473 214.184 45.3561 213.476C46.7358 212.932 48.109 212.36 49.4589 211.749C49.7624 212.494 50.0884 213.231 50.3444 213.996Z" fill="#605F69"/>
<path d="M52.1894 239.453C52.0639 240.379 51.9214 241.285 51.8087 242.185L51.7934 242.318C49.7271 242.936 47.5787 243.356 45.5631 243.709C38.3458 244.962 30.9668 244.718 23.6844 244.214C19.7257 243.943 15.7757 243.763 11.9071 242.869C8.33717 242.042 4.77686 241.126 1.23828 240.185C1.30509 239.352 1.38317 238.512 1.44998 237.68C5.50373 238.954 9.54218 240.523 13.7239 241.35C17.4661 242.095 21.3195 242.202 25.1245 242.313C28.6164 242.41 32.101 242.407 35.5848 242.242C39.059 242.075 42.5445 241.738 45.9599 241.087C47.6672 240.766 49.3552 240.362 51.0182 239.847C51.4135 239.726 51.8022 239.585 52.1894 239.453Z" fill="#605F69"/>
<path d="M48.6952 154.459C48.7097 153.871 48.2815 153.508 47.6729 153.53C43.5411 153.683 39.4133 154.505 35.2629 154.104C31.2825 153.721 27.5781 152.491 24.3051 150.302C24.0435 150.127 23.7738 150.096 23.5324 150.158C23.1122 150.109 22.667 150.278 22.5511 150.708C21.9941 152.775 21.9772 155.02 21.7743 157.141C21.689 158.032 21.5119 158.937 21.9836 159.756C22.3467 160.386 23.0156 160.881 23.6032 161.318C26.6894 163.613 30.628 164.242 34.4387 164.515C38.0626 164.775 41.8893 165.317 45.4005 164.128C47.0298 163.576 48.5994 162.758 48.7532 160.987C48.9431 158.817 48.6421 156.629 48.6952 154.459Z" fill="#39343E"/>
<path d="M39.5232 163.866C38.7561 163.765 37.9882 163.665 37.2211 163.564C36.8725 163.519 36.5232 163.473 36.1746 163.428C35.9468 163.398 35.6731 163.388 35.4196 163.349C35.4011 163.189 35.3777 163.03 35.3568 162.871C35.323 162.609 35.2892 162.348 35.2642 162.084C35.2087 161.502 35.1813 160.916 35.187 160.33C35.1878 160.281 35.1942 160.231 35.1958 160.182C35.2393 160.165 35.2811 160.144 35.323 160.12C35.4389 160.136 35.6917 160.155 35.7158 160.158C36.0788 160.215 36.4411 160.272 36.8041 160.329C37.1671 160.386 37.5302 160.442 37.8924 160.499C38.3987 160.578 38.8744 160.652 39.3775 160.499C40.0722 160.287 40.0867 159.339 39.5522 158.977C39.1167 158.681 38.5436 158.646 38.0276 158.575L36.7687 158.401C36.3107 158.338 35.8076 158.237 35.3262 158.247C35.3753 157.782 35.4284 157.318 35.4832 156.856C35.5363 156.412 35.5516 155.941 35.6901 155.514C35.8253 155.096 36.0627 155.237 36.4837 155.246C37.6509 155.269 38.9163 155.014 40.0392 154.731C40.7146 154.562 40.5954 153.571 39.875 153.691C38.9123 153.852 38.0268 153.856 37.0657 153.68C36.1907 153.519 35.2546 153.35 34.5237 153.97C33.8902 154.507 33.7525 155.31 33.672 156.07C33.573 156.995 33.4813 157.922 33.4233 158.851C33.3662 159.775 33.3243 160.703 33.3404 161.628C33.3549 162.472 33.2913 163.569 33.6922 164.348C34.1663 165.27 35.4824 165.144 36.3936 165.211L39.3429 165.427C40.4103 165.505 40.5834 164.005 39.5232 163.866Z" fill="#605F69"/>
<path d="M83.5331 49.5708C84.59 43.3697 85.9536 34.4566 86.5904 30.2485C86.7884 28.9419 88.0819 28.041 89.4616 28.2472C101.344 30.0179 112.854 32.0916 124.566 34.6963C125.829 34.9771 126.669 36.1292 126.477 37.3422C125.482 43.6163 124.049 50.191 122.529 56.3753C122.227 57.6035 120.954 58.3865 119.641 58.1598L85.5552 52.2699C84.2157 52.0379 83.3166 50.8424 83.5331 49.5708Z" fill="#E4C0A3"/>
<path d="M147.469 7.60221L152.872 2.80055L155.842 2.68717L157.756 0.000976562C157.756 0.000976562 204.893 4.76384 214.686 18.7343C214.686 18.7343 217.266 7.47894 262.245 1.5191L263.574 3.35834L266.166 2.60271L277.444 6.02246L214.73 33.6469L147.469 7.60221Z" fill="white"/>
<path d="M284.587 29.6776C284.524 47.6218 284.738 76.4728 284.87 91.5163C284.894 94.3782 284.919 96.7464 284.926 98.4418C284.954 100.317 284.96 101.366 284.96 101.366C284.96 101.366 284.498 101.516 283.648 101.797C278.387 103.518 258.318 110.085 242.063 115.273C230.426 118.982 220.734 121.992 219.833 122.004C217.48 122.035 209.945 122.137 209.945 122.137L165.582 111.687L139.714 105.592C139.714 105.592 140.202 81.2448 140.709 56.7541C141.219 32.5593 141.746 8.22077 141.843 7.11585C142.047 4.88776 157.603 6.24075 209.355 19.5606C209.346 18.897 220.172 19.4153 220.172 19.4153C220.172 19.4153 237.961 12.0621 282.137 3.67326C284.664 3.20071 284.684 4.53696 284.587 29.6776Z" fill="#8291BF"/>
<path d="M166.33 103.944C166.157 105.732 165.984 107.519 165.812 109.308C165.729 110.098 165.665 110.897 165.582 111.688L139.714 105.593C139.714 105.593 140.202 81.2457 140.709 56.7549C141.197 56.3805 141.666 55.9978 142.144 55.6051C142.744 55.1128 143.314 54.5489 143.751 53.915C144.026 53.947 144.312 53.9972 144.607 54.0649C144.702 54.0908 144.779 54.1251 144.865 54.1601C145.073 54.157 145.283 54.2263 145.448 54.4302C146.405 55.5838 147.116 56.8661 147.442 58.3149C148.134 61.4098 147.432 64.5685 146.566 67.5583C146.069 69.2431 145.543 70.9187 145.218 72.6362C144.875 74.4351 144.903 76.2561 144.977 78.0763C145.006 78.8023 144.934 79.6469 145.38 80.2694C145.826 80.8827 146.583 81.3926 147.151 81.8872C148.535 83.0796 149.948 84.2363 151.398 85.3473C154.153 87.4635 157.076 89.353 159.888 91.3969C162.392 93.2293 165.769 95.6697 166.48 98.7645C166.875 100.474 166.504 102.237 166.33 103.944Z" fill="#6275AF"/>
<path d="M274.152 30.9782C274.008 28.2813 273.85 25.6081 273.655 22.9592C273.599 22.2035 273.61 21.2577 273.419 20.4609C272.844 20.6352 272.27 20.8079 271.696 20.9837C264.786 23.0977 257.772 24.8387 250.798 26.7016C247.256 27.6475 243.719 28.6047 240.182 29.562C237.941 30.1685 235.566 30.5962 233.363 31.434C233.337 31.5337 233.298 31.6227 233.279 31.7277C233.07 32.9011 233.199 34.1293 233.215 35.305C233.233 36.7432 233.259 38.1875 233.288 39.6379C233.342 42.3743 233.402 45.1328 233.468 47.9134C233.618 54.2073 233.795 60.6161 234.002 67.1444C234.108 70.5002 234.128 73.8994 234.195 77.3245C234.256 80.3752 234.153 83.4997 234.363 86.5915C237.919 85.8465 241.465 85.0201 244.982 84.0422C252.863 81.8507 260.596 79.1196 268.384 76.6168C270.555 75.919 272.734 75.244 274.916 74.5827C275.007 71.5183 275.055 68.4753 275.053 65.4619C275.051 59.5165 274.955 53.6715 274.812 47.9248C274.669 42.1765 274.449 36.5279 274.152 30.9782Z" fill="#9BA7CC"/>
<path d="M284.87 91.5169C284.545 90.1396 284.05 88.7737 283.414 87.4275C282.257 84.9848 280.584 82.9165 278.292 81.3322C276.106 79.827 273.605 78.8469 271.077 77.9657C268.053 76.9118 265 75.8761 261.949 74.912C258.954 73.9654 255.829 73.11 252.636 73.4761C252.131 73.5347 251.756 73.7591 251.504 74.059C251.485 73.5095 251.532 72.9464 251.669 72.3704C251.876 71.4983 250.616 71.0326 250.134 71.8042C247.885 75.4051 250.101 79.7243 252.971 82.3496C254.526 83.7726 256.339 84.9011 258.17 85.9756C258.409 86.1156 258.647 86.2572 258.886 86.3972C258.706 86.5075 258.526 86.6186 258.35 86.7312C257.795 87.0706 257.249 87.4009 256.685 87.7228C255.433 88.4305 254.162 89.1115 252.891 89.7834C250.396 91.0999 247.833 92.3365 245.153 93.2877C244.02 93.6887 242.896 94.0715 241.802 94.5615C240.898 94.9686 239.621 95.2814 239.438 96.3878C239.29 97.2508 240.074 98.2636 240.634 98.8929C241.377 99.7444 242.355 100.44 243.37 100.973C245.618 102.181 248.177 102.577 250.662 103.109C250.671 103.109 250.747 103.126 250.861 103.151C250.749 103.224 250.636 103.289 250.532 103.362C250.024 103.683 249.527 104.013 249.019 104.333C247.749 105.14 246.481 105.946 245.211 106.744C243.444 107.871 240.89 109.045 240.353 111.187C239.932 112.834 240.825 114.231 242.066 115.273C258.321 110.085 278.39 103.518 283.65 101.797C283.66 101.788 283.659 101.778 283.669 101.769C284.25 100.667 284.67 99.558 284.929 98.4417C285.49 96.1466 285.426 93.815 284.87 91.5169Z" fill="#6275AF"/>
<path d="M202.122 96.9225C195.139 96.2186 188.177 94.5787 181.664 92.0965C180.93 91.8172 180.238 92.1817 180.172 92.9442C179.844 96.7414 179.672 100.584 179.19 104.366C179.123 104.891 179.349 105.349 179.92 105.509C183.175 106.423 186.517 107.104 189.815 107.867C193.12 108.63 196.411 109.443 199.704 110.249C199.987 110.318 200.238 110.299 200.457 110.225C201.082 110.501 201.972 110.253 202 109.344C202.058 107.479 202.13 105.616 202.235 103.754C202.345 101.787 202.721 99.8986 202.99 97.9536C203.069 97.3768 202.73 96.9834 202.122 96.9225Z" fill="#9BA7CC"/>
<path d="M211.931 23.5549C211.865 22.396 210.123 22.4424 210.044 23.58C208.407 47.5046 208.444 71.5449 208.492 95.5159C208.505 102.313 208.594 109.056 209.542 115.8C209.664 116.666 211.164 117.047 211.325 115.993C213.136 104.147 212.704 92.033 212.769 80.0897C212.834 68.1039 212.884 56.118 212.723 44.1328C212.631 37.2553 212.321 30.4211 211.931 23.5549Z" fill="#9BA7CC"/>
<path d="M220.861 81.4234C220.898 69.3736 220.859 57.3154 220.41 45.2725C220.284 41.8946 220.143 38.5227 219.896 35.1502C219.776 33.5164 219.556 31.9031 219.338 30.2793C219.22 29.3988 219.167 28.5039 219.019 27.6281C218.853 26.6403 218.466 25.7439 218.41 24.7334C218.394 24.4427 217.925 24.4343 217.929 24.7296C217.949 26.1556 217.517 27.6189 217.438 29.0602C217.354 30.6019 217.196 32.139 217.132 33.6815C217.006 36.666 217.039 39.6558 217.054 42.6418C217.084 48.7143 217.12 54.786 217.157 60.8585C217.228 72.8131 217.145 84.7663 216.856 96.718C216.691 103.532 216.481 110.451 217.043 117.252C217.146 118.497 219.328 119.029 219.54 117.577C221.284 105.665 220.824 93.42 220.861 81.4234Z" fill="#6275AF"/>
<path d="M196.79 59.0527C195.227 58.2491 193.431 57.8923 191.73 57.4326C190.036 56.9745 188.36 56.4563 186.671 55.9822C183.098 54.9801 179.535 53.9497 175.957 52.9597C168.911 51.0093 161.768 49.234 154.568 47.8719C152.524 47.4854 151.745 50.5124 153.792 50.8404C160.964 51.991 168.076 53.277 175.129 54.9701C178.544 55.7897 181.958 56.7036 185.297 57.7675C187.147 58.3572 189.006 58.9523 190.82 59.6348C192.459 60.2512 194.08 61.0738 195.817 61.4079C197.282 61.6887 198.173 59.7635 196.79 59.0527Z" fill="#9BA7CC"/>
<path d="M194.721 64.9213C191.571 63.8971 188.149 63.3697 184.922 62.5593C181.565 61.7162 178.208 60.8738 174.851 60.0306C168.235 58.3695 161.641 56.6299 155.038 54.9223C152.901 54.3698 152.055 57.5674 154.211 58.0856C160.844 59.6791 167.487 61.2398 174.107 62.8797C177.368 63.687 180.629 64.4944 183.89 65.3025C187.219 66.1267 190.571 67.2963 193.946 67.8913C196.011 68.2543 196.681 65.559 194.721 64.9213Z" fill="#9BA7CC"/>
<path d="M168.567 67.6152C167.504 67.1442 166.266 66.9616 165.129 66.7036C163.967 66.4403 162.803 66.1861 161.634 65.954C159.341 65.4982 157.009 65.1764 154.689 64.8666C153.758 64.7426 152.82 65.1452 152.579 66.0705C152.372 66.8626 152.915 67.9447 153.852 68.065C156.181 68.3633 158.491 68.7475 160.81 69.1037C161.948 69.2787 163.086 69.4575 164.221 69.6531C165.412 69.8586 166.663 70.2246 167.874 70.2451C169.316 70.2702 169.917 68.2141 168.567 67.6152Z" fill="#9BA7CC"/>
<path d="M166.033 96.7101C165.452 95.5968 164.394 94.7849 163.9 93.6252C163.429 92.5195 163.33 91.2989 162.86 90.1871C161.912 87.9446 159.914 86.6061 157.853 85.32C155.22 83.6771 152.527 82.1309 149.859 80.5412C148.525 79.7468 147.193 78.9493 145.858 78.1579C144.849 77.5605 143.881 77.0081 142.644 77.0819C141.27 77.1641 139.851 77.7896 138.549 78.1777C137.745 78.4174 136.949 78.6624 136.157 78.9204C136.244 77.5636 136.338 76.2068 136.489 74.8546C136.843 71.6722 137.905 69.1671 140.606 67.1407C142.918 65.4072 145.41 64.001 146.532 61.2767C147.626 58.6202 147.326 55.6479 145.679 53.2585C145.176 52.5287 144.193 52.4275 143.522 53.0119C140.033 56.0505 136.211 58.7534 132.84 61.9167C129.921 64.6562 128.089 67.891 126.894 71.5862C125.693 75.3012 125.079 79.2072 122.825 82.5349C121.936 83.8483 120.797 84.9913 119.332 85.7325C117.808 86.5049 116.113 86.931 114.707 87.9157C111.32 90.2884 112.886 95.3518 113.415 98.6452C114.143 103.178 114.896 107.701 115.784 112.208C116.654 116.624 117.747 121.007 118.523 125.439C118.914 127.674 119.134 129.899 118.597 132.133C118.094 134.224 116.645 135.913 115.855 137.9C115.054 139.915 115.108 142.077 115.111 144.199C115.116 146.854 115.172 149.509 115.281 152.163C115.498 157.451 115.515 162.787 115.934 168.062C116.034 169.322 117.323 169.793 118.308 169.549C119.307 170.237 120.57 170.734 121.505 171.158C123.452 172.04 125.495 172.774 127.584 173.296C131.782 174.346 136.125 174.636 140.431 174.115C141.475 173.989 142.479 173.305 142.414 172.186C141.986 164.758 141.729 157.323 141.582 149.885C141.455 143.469 140.993 136.814 141.836 130.398C142.327 129.666 142.868 128.972 143.447 128.301C144.82 126.709 146.327 125.226 147.783 123.703C149.252 122.167 150.803 120.56 151.866 118.737C152.325 117.951 152.931 116.53 152.973 115.292C154.236 115.631 155.679 115.258 156.553 114.325C156.639 114.234 156.693 114.113 156.767 114.008C158.347 114.776 160.3 114.546 161.981 113.619C163.334 112.874 163.921 111.583 163.299 110.191C162.784 109.038 162.331 107.857 161.89 106.676C161.276 105.033 160.695 103.376 160.138 101.712C161.456 102.257 162.892 102.499 164.291 102.008C166.636 101.186 167.046 98.6483 166.033 96.7101Z" fill="#754C4A"/>
<path d="M136.22 76.8833C135.325 76.897 134.44 76.9442 133.544 76.8947C132.655 76.8452 131.769 76.6839 130.903 76.4883C129.173 76.0964 127.532 75.404 125.978 74.5928C124.842 74.7998 121.172 79.4302 129.436 80.6432C130.729 80.8334 136.959 79.8282 137.028 77.6267C137.041 77.2196 136.636 76.8764 136.22 76.8833Z" fill="#CB987E"/>
<path d="M153.56 103.49C151.887 101.182 149.633 97.6022 146.561 96.9204C143.379 96.2142 140.264 96.2895 137.016 96.164C133.328 96.0209 129.712 95.1557 126.135 94.3864C125.428 94.2342 124.81 95.1275 125.414 95.6153C127.696 97.4606 130.793 98.5983 133.788 98.7162C136.976 98.8418 140.07 97.7293 143.247 97.9553C146.729 98.2033 148.81 101.257 150.716 103.707C152.637 106.177 154.121 108.902 154.877 111.899C155.046 112.573 156.263 112.615 156.366 111.879C156.808 108.704 155.423 106.063 153.56 103.49Z" fill="#482B2C"/>
<path d="M158.853 100.263C158.288 98.8573 157.216 97.7539 156.217 96.6041C155.123 95.3447 153.999 94.1097 152.888 92.8647C151.058 90.8162 149.284 87.8477 146.122 87.882C142.547 87.92 138.982 88.1034 135.404 87.9535C132.174 87.818 128.743 87.7572 125.627 86.8813C125 86.7055 124.423 87.5867 124.977 87.987C130.247 91.7948 136.894 90.19 143.016 89.8886C144.492 89.8156 146.491 89.4655 147.844 90.1222C149.246 90.8041 150.358 92.4477 151.371 93.5641C152.57 94.8851 153.719 96.2442 154.846 97.6215C155.811 98.8002 156.671 100.046 157.95 100.939C158.374 101.237 159.034 100.715 158.853 100.263Z" fill="#482B2C"/>
<path d="M135.773 78.8377C134.814 78.7722 133.823 79.2912 132.948 79.6108C132.015 79.9517 131.068 80.269 130.15 80.6419C129.251 81.0072 128.359 81.3861 127.463 81.7575C127.015 81.9439 126.576 82.1334 126.147 82.3579C125.717 82.5831 125.346 82.8723 124.924 83.1074C124.522 83.3304 124.802 83.8676 125.229 83.7892C125.717 83.6994 126.206 83.6812 126.694 83.5785C127.177 83.4773 127.64 83.3441 128.111 83.2018C129.045 82.9187 129.989 82.6547 130.916 82.3518C131.846 82.0489 132.763 81.7042 133.686 81.38C134.588 81.0635 135.683 80.8162 136.371 80.1496C136.899 79.639 136.455 78.8841 135.773 78.8377Z" fill="#482B2C"/>
<path d="M152.672 114.4C151.1 113.465 150.026 112.158 149.036 110.7C148.034 109.223 146.949 107.237 144.958 106.848C143.947 106.65 142.73 106.966 141.703 107.02C140.512 107.082 139.345 107.175 138.159 107.281C136.992 107.385 136.188 106.839 135.234 106.276C134.119 105.619 132.914 105.203 131.764 104.626C131.249 104.368 130.803 104.989 131.173 105.38C132.402 106.678 133.55 108.427 135.175 109.397C135.137 109.429 135.104 109.465 135.066 109.496C135.01 109.542 134.953 109.587 134.896 109.632C134.779 109.71 134.666 109.791 134.548 109.866C134.298 110.026 134.038 110.172 133.77 110.305C133.644 110.369 133.516 110.428 133.386 110.485C133.377 110.489 133.317 110.513 133.269 110.534C133.249 110.541 133.23 110.548 133.212 110.555C132.93 110.658 132.642 110.744 132.354 110.83C132.082 110.913 131.806 110.981 131.527 111.035C131.097 111.118 130.724 111.292 130.395 111.568C130.17 111.757 130.097 112.069 130.138 112.338C130.185 112.651 130.361 112.836 130.624 113.014C131.296 113.472 132.278 113.274 133.03 113.138C133.724 113.011 134.408 112.734 135.038 112.438C135.172 112.375 135.3 112.297 135.432 112.228C135.665 114.846 137.042 117.326 137.833 120.005C138.998 123.952 138.903 128.06 136.505 131.599C136.191 132.063 136.873 132.735 137.356 132.382C140.69 129.947 141.252 125.99 140.67 122.246C140.34 120.129 139.636 118.091 138.998 116.044C138.421 114.19 137.737 112.006 138.401 110.092C138.936 110.053 139.47 109.975 139.991 109.861C141.159 109.605 142.49 108.917 143.698 108.946C145.611 108.991 146.712 111.455 147.661 112.731C148.766 114.214 150.033 115.686 152.026 115.965C153.018 116.102 153.564 114.93 152.672 114.4Z" fill="#482B2C"/>
<path d="M136.777 134.774C136.651 134.63 136.501 134.533 136.341 134.422C136.296 134.391 136.251 134.36 136.205 134.33C136.075 134.244 135.92 134.207 135.772 134.153C135.662 134.114 135.552 134.068 135.437 134.042C135.277 134.006 135.11 133.989 134.948 133.971C134.429 133.916 133.895 133.942 133.375 133.983C132.966 134.016 132.594 134.136 132.299 134.422C132.037 134.676 131.844 135.09 131.866 135.451C131.888 135.824 132.025 136.211 132.33 136.467C132.615 136.708 133.022 136.919 133.418 136.877C134.473 136.763 135.658 136.927 136.578 136.326C136.859 136.142 137.037 135.914 137.076 135.589C137.116 135.261 136.995 135.021 136.777 134.774Z" fill="#482B2C"/>
<path d="M300.692 176.509C299.993 174.646 299.806 172.542 299.443 170.597C299.074 168.616 298.709 166.633 298.349 164.649C297.63 160.682 296.932 156.712 296.233 152.743C295.029 145.904 293.827 139.072 292.467 132.262C292.549 131.581 292.627 130.9 292.715 130.219C293.428 124.695 294.283 119.19 295.112 113.681C295.519 110.972 295.905 108.26 296.258 105.544C296.606 102.855 296.706 100.139 297.203 97.4736C297.621 95.2326 297.094 93.2313 295.082 91.8844C294.013 91.1683 292.815 90.6668 291.717 89.9995C290.869 89.4835 290.036 88.9463 289.201 88.4136C287.216 86.8309 285.191 85.2907 283.192 83.7086C279.983 81.1693 276.733 78.6208 273.378 76.255C271.938 75.2399 270.457 74.7902 268.73 74.4089C266.839 73.9919 265.241 73.0879 263.479 72.3635C259.818 70.859 255.863 72.0416 252.209 70.5402C251.365 70.1932 250.612 70.6886 250.35 71.3141C250.227 71.4556 250.123 71.6154 250.054 71.7973C248.846 75.0055 251.209 78.1734 254.14 79.5956C255.724 80.3642 257.385 80.7941 259.127 81.1038C259.913 81.2439 260.711 81.3162 261.508 81.39C262.891 82.2681 264.255 83.1744 265.596 84.1104C264.597 84.4414 263.618 84.8562 262.69 85.1735C260.343 85.9763 257.998 86.7814 255.643 87.5644C250.941 89.1282 246.17 90.4964 241.464 92.051C239.691 92.637 238.336 93.6072 238.785 95.5887C239.179 97.3237 240.629 98.5664 242.357 99.1287C246.158 100.365 250.802 99.2094 254.517 98.2163C256.776 97.6121 259.007 96.9121 261.287 96.3779C259.052 98.1197 256.595 99.5267 253.962 100.781C252.238 101.602 250.614 102.514 249.273 103.846C247.866 105.244 246.67 106.649 244.786 107.497C243.3 108.167 241.499 109.142 241.512 110.958C241.525 112.758 243.424 113.949 245.125 114.151C245.86 114.238 246.575 114.184 247.275 114.05C246.725 114.961 246.567 115.925 247.39 116.852C249.084 118.757 251.912 119.045 254.335 118.546C255.225 118.363 256.081 118.069 256.921 117.73C256.966 117.879 257.014 118.029 257.071 118.177C257.47 119.204 258.015 120.192 258.514 121.178C259.499 123.118 260.351 125.175 261.688 126.931C263.032 128.698 264.333 130.51 265.728 132.243C267.046 133.879 268.378 135.439 269.298 137.321C269.701 138.147 270.063 138.978 270.405 139.813C271.049 145.961 271.676 152.11 272.274 158.261C272.588 161.489 272.889 164.72 273.177 167.951C273.329 169.661 273.47 171.374 273.627 173.083C273.775 174.7 273.701 176.535 274.314 178.059C274.862 179.423 277.18 179.74 277.622 178.128C277.71 178.406 277.804 178.68 277.912 178.947C278.045 179.276 278.258 179.539 278.516 179.74C278.768 180.472 279.419 181.107 280.444 181.213C286.813 181.866 293.465 180.741 299.425 178.622C300.296 178.311 301.043 177.442 300.692 176.509Z" fill="#754C4A"/>
<path d="M291.539 90.6403C289.936 89.6571 288.072 89.0834 286.277 88.4906C284.351 87.8544 282.414 87.2959 280.439 86.8134C276.627 85.882 272.819 85.3044 268.912 84.9095C268.464 84.8638 268.42 85.5198 268.825 85.6271C272.538 86.608 276.242 87.7045 279.916 88.8102C281.723 89.3535 283.527 89.9067 285.327 90.4729C287.179 91.0558 289.012 91.7772 290.942 92.0869C291.873 92.236 292.34 91.1311 291.539 90.6403Z" fill="#482B2C"/>
<path d="M291.466 95.6686C287.92 94.9183 284.238 94.4252 280.629 94.0394C277.065 93.6589 273.495 93.3066 269.919 93.0479C266.598 92.8082 264.255 93.5798 261.829 95.7447C261.29 96.2256 262.016 97.1213 262.641 96.7241C263.829 95.9699 265.088 95.0157 266.533 94.7768C267.805 94.566 269.263 94.8445 270.535 94.9624C273.584 95.2432 276.623 95.5834 279.649 96.0308C282.566 96.463 285.488 96.8618 288.396 97.3473C290.443 97.6889 293.392 97.7392 294.44 99.7374C294.822 100.466 296.013 100.081 296 99.3258C295.962 97.0338 293.5 96.0993 291.466 95.6686Z" fill="#482B2C"/>
<path d="M287.702 102.859C285.566 102.734 283.398 102.874 281.264 102.974C276.872 103.179 272.488 103.546 268.09 103.65C266.191 103.695 264.259 103.685 262.386 104.016C260.617 104.329 259.058 105.349 257.568 106.251C254.134 108.332 250.978 110.688 247.902 113.212C247.479 113.559 248.051 114.253 248.515 113.95C251.315 112.117 254.234 110.433 257.133 108.744C258.537 107.926 259.952 107.077 261.433 106.388C263.213 105.559 264.915 105.222 266.886 105.104C270.458 104.888 274.034 104.827 277.613 104.849C279.452 104.861 281.293 104.842 283.132 104.828C284.052 104.821 284.973 104.801 285.891 104.763C286.388 104.742 288.33 104.345 288.659 104.759C288.993 105.179 289.787 105.079 289.771 104.465C289.741 103.336 288.782 102.923 287.702 102.859Z" fill="#482B2C"/>
<path d="M280.59 116.423C280.127 116.231 279.658 116.086 279.182 115.923C279.127 115.904 279.071 115.884 279.016 115.865C278.976 115.85 278.915 115.827 278.815 115.791C278.692 115.75 278.566 115.719 278.442 115.682C278.208 115.612 277.979 115.53 277.748 115.451C277.535 115.379 277.319 115.314 277.106 115.24C277.07 115.225 276.886 115.155 276.861 115.146C276.756 115.103 276.652 115.06 276.549 115.014C276.524 115.003 276.503 114.988 276.478 114.977C276.795 114.658 277.105 114.329 277.49 114.087C278.27 113.598 279.074 113.353 279.748 112.713C280.138 112.344 279.897 111.786 279.422 111.636C277.635 111.071 276.115 112.448 274.992 113.594C274.348 114.251 273.236 114.123 272.324 114.169C271.114 114.231 269.981 114.001 268.893 113.489C268.096 113.114 267.325 112.65 266.43 112.519C265.405 112.368 264.529 112.806 263.627 113.209C261.433 114.189 259.306 115.317 257.152 116.374C256.474 116.707 256.95 117.816 257.68 117.555C259.877 116.767 262.114 116.047 264.279 115.185C265.282 114.786 266.161 114.394 267.256 114.69C268.265 114.962 269.248 115.298 270.276 115.51C271.2 115.7 272.296 116.002 273.359 116.075C273.461 116.994 273.679 117.848 273.576 118.784C273.473 119.723 273.175 120.656 272.827 121.538C272.184 123.168 271.316 124.711 270.721 126.361C269.521 129.681 270.193 132.912 272.059 135.885C272.338 136.331 273.186 136.032 272.973 135.519C271.61 132.247 272.335 128.57 273.785 125.442C274.911 123.015 276.607 119.848 276.11 117.031C277.515 117.562 279.053 117.821 280.473 117.377C280.887 117.249 281.059 116.618 280.59 116.423Z" fill="#482B2C"/>
<path d="M154.821 234.165C154.693 232.663 154.413 231.184 154.275 229.686C154.144 228.263 154.028 226.81 153.624 225.427C153.518 225.067 153.389 224.716 153.246 224.371C153.237 223.74 153.227 223.109 153.22 222.479C153.164 217.651 153.026 212.826 152.788 208.004C152.34 198.915 151.914 189.588 148.066 181.111C146.235 177.078 143.597 172.807 139.73 170.233C139.193 169.875 138.517 170.162 138.162 170.63C137.77 170.433 137.335 170.293 136.826 170.252C134.971 170.104 133.263 171.253 131.687 172.018C129.867 172.901 128.026 173.762 126.116 174.461C124.182 175.167 122.164 175.764 120.106 176.037C118.025 176.313 116.061 176.07 113.998 175.818C112.356 175.617 110.983 177.603 112.157 178.645C112.079 178.785 112.016 178.94 111.984 179.125C110.07 190.283 108.532 201.504 107.319 212.749C106.714 218.358 106.183 223.978 105.734 229.6C105.505 232.46 105.282 235.321 105.088 238.185C104.997 239.521 104.911 240.857 104.832 242.194C104.746 243.627 104.423 245.209 104.939 246.585C105.24 247.389 106.316 247.872 107.125 247.603C110.7 248.025 114.383 247.638 117.968 247.574C122.075 247.5 126.201 247.545 130.283 248.017C134.037 248.452 137.754 249.166 141.542 249.29C145.366 249.415 149.189 248.959 152.878 248.011C153.514 247.848 153.901 247.475 154.09 247.033C154.686 246.824 155.157 246.326 155.151 245.541C155.119 241.743 155.144 237.951 154.821 234.165Z" fill="#738581"/>
<path d="M152.472 169.904C151.574 167.647 150.658 165.393 149.691 163.162C148.809 161.125 147.882 159.105 146.942 157.091C146.162 155.416 145.417 152.659 142.93 152.943C141.941 153.056 141.053 153.639 140.161 154.035C139.022 154.541 137.858 154.958 136.653 155.301C134.271 155.979 131.822 156.429 129.343 156.617C124.368 156.993 119.48 156.309 114.769 154.776C113.598 154.395 112.778 155.102 112.548 155.994C109.328 159.867 106.593 163.959 104.145 168.312C103.606 169.27 102.849 170.261 103.09 171.405C103.293 172.37 104.217 173.011 104.974 173.589C105.956 174.339 106.979 175.031 108.028 175.683C107.493 177.486 106.488 179.785 107.739 181.456C108.785 182.856 111.032 183.783 112.573 184.606C114.647 185.714 116.835 186.713 119.131 187.339C123.681 188.578 128.489 188.154 133.037 187.16C137.275 186.234 141.466 184.908 145.422 183.198C147.366 182.357 149.234 181.374 151.009 180.247C152.781 179.123 154.762 177.862 154.515 175.588C154.308 173.677 153.181 171.685 152.472 169.904Z" fill="#738581"/>
<path d="M320.316 244.16C319.085 238.105 319.218 231.799 319.097 225.668C319.048 223.184 318.915 220.471 317.374 218.309C316.578 217.193 315.424 216.444 314.427 215.494C313.579 214.687 313.078 213.727 312.801 212.656C312.179 210.246 312.481 207.636 312.196 205.181C311.877 202.425 311.315 199.709 310.467 197.042C309.25 193.218 307.571 189.538 305.722 185.926C306.784 184.781 307.186 183.408 306.526 181.571C306.389 181.186 306.238 180.805 306.093 180.422C307.022 179.884 307.748 179.088 308.19 178.084C309.112 175.989 308.36 173.811 307.384 171.85C306.235 169.544 304.857 167.328 303.33 165.204C302.563 164.137 301.768 163.084 300.939 162.054C300.261 161.212 299.605 160.258 298.456 159.889C298.175 159.799 297.901 159.758 297.633 159.758C297.146 159.676 296.638 159.729 296.221 159.99C288.908 164.567 281.245 169.174 272.127 170.127C271.6 170.182 271.223 170.415 270.976 170.718C270.638 170.931 270.379 171.266 270.277 171.746C269.231 176.668 263.681 179.936 264.213 185.331C264.514 188.389 266.854 190.289 269.769 191.442C269.55 193.965 269.334 196.488 269.136 199.013C268.909 201.913 268.73 204.796 268.657 207.702C268.591 210.365 268.205 213.12 268.718 215.762C269.199 218.244 270.968 220.203 271.612 222.611C272.288 225.145 271.66 227.915 271.417 230.465C270.873 236.172 271.02 241.947 271.609 247.644C271.703 248.553 272.386 249.123 273.407 249.194C281.2 249.744 288.939 250.821 296.784 250.553C304.449 250.291 312.295 249.332 319.292 246.403C320.24 246.005 320.482 244.975 320.316 244.16Z" fill="#738581"/>
<path d="M294.043 140.295C290.689 143.175 287.119 145.751 283.203 147.909C279.293 150.063 275.143 151.714 270.849 153.051C269.652 153.423 270.206 155.233 271.369 154.822C280.006 151.767 288.299 147.121 295.306 141.457C296.161 140.765 294.885 139.572 294.043 140.295Z" fill="#CB987E"/>
<path d="M296.307 146.324C292.948 149.302 289.057 151.753 284.842 153.51C282.748 154.383 280.56 155.077 278.333 155.575C277.224 155.822 276.104 156.028 274.976 156.181C273.839 156.335 272.54 156.199 271.477 156.608C270.837 156.855 270.756 157.723 271.496 157.92C272.644 158.225 274 157.862 275.162 157.703C276.332 157.543 277.493 157.337 278.644 157.08C280.981 156.558 283.264 155.852 285.475 154.964C289.948 153.167 294.033 150.642 297.516 147.434C298.295 146.717 297.096 145.625 296.307 146.324Z" fill="#CB987E"/>
<path d="M304.233 180.454C303.282 180.921 302.49 181.696 301.653 182.327C300.803 182.967 299.956 183.609 299.083 184.222C297.334 185.447 295.513 186.642 293.626 187.671C289.886 189.71 285.649 191.111 281.406 191.84C279.226 192.214 277.042 192.328 274.84 192.432C273.581 186.939 273.257 181.142 273.361 175.543C273.369 175.049 272.602 175.078 272.562 175.554C272.305 178.553 272.18 181.534 272.271 184.544C272.361 187.53 272.668 190.508 272.945 193.482C272.994 194.012 273.41 194.477 274.013 194.463C276.275 194.409 278.534 194.015 280.742 193.578C282.96 193.139 285.164 192.577 287.306 191.878C291.529 190.498 295.82 188.715 299.502 186.306C300.581 185.601 301.619 184.847 302.619 184.043C303.562 183.285 304.65 182.423 305.251 181.391C305.614 180.766 304.862 180.146 304.233 180.454Z" fill="#5D6E6D"/>
<path d="M151.696 178.759C149.486 179.56 147.252 180.292 145.049 181.105C142.829 181.925 140.653 182.833 138.4 183.572C134.158 184.966 129.758 185.862 125.251 185.819C121.432 185.783 117.492 185.158 113.994 183.667C112.233 182.916 110.567 181.958 109.092 180.775C108.734 180.488 108.367 180.195 108.046 179.87C107.64 179.459 107.592 179.208 107.795 178.669C108.232 177.506 108.762 176.369 109.24 175.22C111.304 170.257 113.161 165.215 115.292 160.277C115.523 159.742 114.703 159.288 114.439 159.834C112.217 164.443 109.853 168.982 107.779 173.655C107.255 174.836 106.751 176.024 106.246 177.211C105.81 178.236 105.324 179.262 105.887 180.337C106.35 181.221 107.299 181.929 108.086 182.546C108.908 183.19 109.784 183.776 110.699 184.295C118.521 188.74 127.83 188.191 136.308 185.994C137.695 185.635 139.074 185.228 140.438 184.78C140.458 185.647 140.684 186.494 140.866 187.351C141.081 188.366 141.287 189.382 141.485 190.4C141.88 192.435 142.258 194.474 142.6 196.517C143.27 200.526 143.877 204.553 144.27 208.595C145.064 216.745 145.285 224.937 144.935 233.115C144.839 235.35 144.683 237.579 144.526 239.81C144.4 241.604 144.471 243.597 145.973 244.897C146.933 245.728 148.244 244.434 147.375 243.533C146.235 242.351 146.537 240.465 146.628 239.005C146.752 237.034 146.844 235.062 146.903 233.089C147.024 229.095 147.016 225.096 146.887 221.101C146.628 213.096 145.945 205.055 144.69 197.133C144.336 194.901 143.948 192.673 143.495 190.458C143.278 189.396 143.052 188.337 142.816 187.279C142.586 186.249 142.406 185.214 141.932 184.266C142.75 183.977 143.564 183.678 144.368 183.36C147.032 182.307 149.541 180.908 152.071 179.599C152.545 179.354 152.218 178.571 151.696 178.759Z" fill="#5D6E6D"/>
<path d="M278.472 229.39C278.725 227.735 279.208 226.127 279.509 224.482C279.793 222.924 279.871 221.354 279.373 219.825C278.908 218.395 278.124 217.181 277.265 215.94C276.877 215.378 276.481 214.787 276.169 214.184C275.794 213.461 275.736 212.589 275.74 211.795C275.748 210.02 275.976 208.237 276.159 206.473C276.367 204.465 276.669 202.467 276.902 200.461C277.013 199.508 277.11 198.554 277.197 197.599C277.291 196.562 277.48 195.491 277.391 194.453C277.309 193.488 275.809 193.234 275.551 194.253C275.343 195.077 275.328 195.924 275.267 196.767C275.198 197.721 275.118 198.674 275.072 199.629C274.984 201.439 274.944 203.251 274.87 205.062C274.798 206.828 274.671 208.593 274.511 210.354C274.367 211.942 274.221 213.5 274.531 215.08C274.809 216.493 275.819 217.783 276.656 218.949C277.082 219.543 277.494 220.106 277.722 220.799C278 221.64 278.083 222.528 278.096 223.406C278.121 225.144 277.741 226.866 277.464 228.576C277.193 230.25 276.958 231.926 276.783 233.613C276.371 237.585 276.36 241.609 276.898 245.571C277.078 246.899 279.062 246.648 278.836 245.308C278.245 241.808 277.919 238.268 278.006 234.722C278.051 232.935 278.203 231.158 278.472 229.39Z" fill="#5D6E6D"/>
<path d="M362.296 247.66C362.964 248.895 363.689 250.111 364.455 251.298C365.111 252.301 365.755 253.575 366.693 254.37C367.807 255.312 369.124 254.905 370.408 254.578C370.602 254.526 370.802 254.479 370.995 254.428C371.943 254.186 372.884 253.945 373.826 253.705C374.239 253.601 374.645 253.493 375.058 253.39C380.564 251.981 386.066 250.58 391.572 249.171C392.591 248.912 393.61 248.647 394.629 248.389C399.536 247.134 404.449 245.877 409.358 244.628C410.04 244.448 410.73 244.273 411.414 244.1C411.718 244.022 411.95 243.857 412.113 243.643C412.261 243.446 412.344 243.212 412.373 242.958C412.754 239.349 412.275 235.637 411.005 232.214C410.516 230.905 409.899 229.677 409.204 228.499C408.739 227.698 408.23 226.913 407.718 226.142C407.006 225.08 406.263 224.031 405.533 222.953C403.819 220.435 402.358 217.675 403.253 214.635C403.682 213.175 404.291 211.776 404.53 210.271C404.77 208.75 404.703 207.237 404.475 205.711C404.281 204.423 403.973 203.143 403.613 201.88C403.335 200.924 403.031 199.975 402.715 199.033C402.398 198.061 402.07 197.097 401.762 196.135C400.674 192.721 399.572 189.311 398.438 185.909C397.302 182.5 395.892 179.175 394.777 175.762C394.732 175.616 394.682 175.479 394.637 175.333C394.3 174.286 393.964 173.24 393.621 172.195C392.916 170.058 392.178 167.928 391.354 165.838C390.229 162.993 388.64 160.53 386.196 158.534C384.576 157.209 382.739 156.137 380.864 155.153C380.832 155.135 380.799 155.117 380.76 155.099C380.672 155.048 380.584 155.004 380.49 154.961C380.153 154.78 379.81 154.6 379.462 154.427C379.091 154.242 378.716 154.049 378.344 153.864C377.757 153.565 377.196 153.814 376.905 154.227C376.759 154.43 376.679 154.677 376.708 154.917C376.442 154.927 376.183 154.936 375.921 154.959C375.65 154.978 375.375 155.003 375.106 155.027C373.714 155.152 372.336 155.352 370.967 155.589C369.697 155.809 368.428 156.06 367.168 156.317L367.142 156.323C366.339 156.486 365.536 156.654 364.733 156.817C362.461 157.285 360.189 157.753 357.918 158.22C356.702 158.466 355.496 158.717 354.28 158.963C353.981 159.027 353.673 159.086 353.373 159.149C352.134 159.407 350.825 159.584 349.6 159.924C349.381 159.982 349.163 160.046 348.95 160.122C347.561 160.597 346.55 161.699 345.765 162.957C345.154 163.933 344.679 165.007 344.277 165.941C343.197 168.431 343.077 170.964 343.515 173.6C343.995 176.479 344.698 179.339 345.369 182.186C345.778 183.899 346.198 185.602 346.645 187.305C346.807 187.951 346.978 188.6 347.152 189.242C348.05 192.609 349.024 195.952 350.062 199.279C350.966 202.17 351.927 205.047 352.933 207.908L353.84 210.446C354.544 212.369 355.266 214.282 356.014 216.187C357.033 218.784 358.335 221.464 358.406 224.278C358.453 225.847 358.215 227.405 358.026 228.965C357.899 229.977 357.8 230.989 357.806 232.009C357.801 232.095 357.802 232.179 357.804 232.263C357.909 237.657 359.721 242.885 362.296 247.66Z" fill="#695D65"/>
<path d="M346.324 164.159C348.283 165.255 350.368 166.222 352.497 167.069C353.251 167.374 354.013 167.657 354.772 167.928C356.421 168.523 358.08 169.051 359.734 169.529C361.714 170.099 363.813 170.758 365.889 170.882C367.036 170.951 368.052 170.706 368.98 170.255C369.611 169.963 370.197 169.572 370.77 169.132C370.987 168.964 371.201 168.784 371.415 168.604C373.195 167.074 374.956 165.522 376.734 163.987C377.626 163.218 378.518 162.45 379.411 161.68C379.831 161.315 380.296 160.965 380.73 160.597C381.043 160.321 381.342 160.043 381.607 159.741C381.86 159.447 382.009 159.152 382.067 158.846C382.362 157.534 381.194 156.123 380.49 154.962C380.438 154.87 380.387 154.778 380.336 154.692C379.83 153.79 379.361 152.865 378.922 151.928C378.611 151.266 378.318 150.593 378.042 149.91C377.892 149.548 377.755 149.184 377.618 148.819C376.128 144.849 374.988 140.427 375.047 136.191C375.051 136.028 374.989 135.866 374.903 135.724C374.85 135.547 374.725 135.388 374.496 135.299C373.416 134.856 372.319 134.451 371.21 134.079C370.326 133.78 369.426 133.497 368.53 133.225C367.753 132.991 366.97 132.765 366.19 132.545C363.561 131.808 360.859 131.004 358.119 130.788C355.245 130.559 352.732 131.447 350.19 132.615C347.423 133.895 344.664 135.18 341.897 136.461C341.48 136.656 341.296 137.005 341.283 137.372C341.227 137.554 341.221 137.738 341.28 137.912C342.664 142.005 343.891 146.179 344.804 150.394C345.243 152.406 345.583 154.434 345.76 156.473C345.83 157.263 345.88 158.058 345.895 158.848C345.936 160.211 345.898 161.586 345.762 162.957C345.761 163.029 345.751 163.096 345.742 163.17C345.705 163.557 345.984 163.966 346.324 164.159Z" fill="#695D65"/>
<path d="M357.939 232.077C359.835 232.959 361.784 233.777 363.762 234.523C363.902 235.895 364.11 237.264 364.404 238.62C365.334 242.87 367.032 246.954 369.05 250.838C369.676 252.045 370.32 253.24 370.996 254.428C371.944 254.186 372.885 253.945 373.827 253.705C372.769 251.904 371.748 250.082 370.833 248.196C368.89 244.176 367.468 239.963 366.802 235.592C373.167 237.663 379.851 238.801 386.632 238.161C387.063 238.125 387.49 238.07 387.922 238.015C389.34 241.663 390.515 245.401 391.573 249.173C392.592 248.914 393.61 248.649 394.629 248.39C393.562 244.718 392.405 241.068 391.026 237.495C394.378 236.787 397.624 235.628 400.543 233.903C401.281 233.463 402.023 232.964 402.763 232.452C403.029 233.046 403.3 233.633 403.584 234.217C405.323 237.751 407.538 241.128 409.359 244.63C410.041 244.45 410.731 244.275 411.415 244.102C411.719 244.024 411.95 243.859 412.114 243.645C412.058 243.535 411.995 243.426 411.938 243.315C409.714 239.193 407.017 235.292 405.143 231.008C405.12 230.948 405.099 230.895 405.079 230.842C406.405 229.945 407.766 229.099 409.205 228.501C408.739 227.7 408.231 226.915 407.719 226.144C406.478 226.714 405.303 227.426 404.149 228.191C403.218 224.936 402.975 221.598 402.687 218.192C402.31 213.74 401.286 209.394 400.341 205.03C401.424 203.969 402.499 202.898 403.615 201.881C403.337 200.925 403.032 199.976 402.717 199.034C401.664 199.926 400.658 200.864 399.664 201.82C398.842 197.85 398.065 193.868 397.262 189.894C396.359 185.429 395.509 180.906 393.87 176.626C393.833 176.537 393.796 176.448 393.759 176.36C394.056 176.024 394.353 175.687 394.638 175.334C394.302 174.288 393.965 173.242 393.622 172.197C393.278 172.668 392.925 173.128 392.561 173.578C392.062 172.544 391.515 171.533 390.886 170.556C389.644 168.603 388.122 166.839 386.642 165.053C384.982 163.055 383.457 160.993 382.068 158.847C381.134 157.414 380.267 155.946 379.464 154.43C379.349 154.229 379.24 154.021 379.13 153.812C378.88 153.331 378.647 152.839 378.402 152.35L378.925 151.929C378.613 151.267 378.32 150.594 378.044 149.911C377.846 150.074 377.653 150.23 377.453 150.388C374.992 145.098 373.039 139.597 371.213 134.081C370.329 133.781 369.429 133.498 368.532 133.227C370.555 139.543 372.748 145.826 375.674 151.813C374.435 152.806 373.196 153.8 371.956 154.793C371.627 155.059 371.298 155.325 370.969 155.59C369.884 156.463 368.807 157.34 367.7 158.185C367.523 157.563 367.346 156.94 367.168 156.319C365.386 150.024 363.559 143.746 361.7 137.476C361.207 135.835 358.483 136.467 358.977 138.114C360.858 144.36 362.781 150.589 364.733 156.818C365.024 157.745 365.317 158.678 365.608 159.605C364.733 160.096 363.796 160.485 362.786 160.624C360.975 160.88 359.155 160.37 357.437 159.882C356.389 159.582 355.332 159.277 354.279 158.965C354.07 158.903 353.869 158.846 353.661 158.784C352.641 151.732 351.668 144.668 350.642 137.61C350.546 136.957 349.691 136.559 349.066 136.718C348.341 136.894 348.023 137.541 348.12 138.202C348.864 143.185 349.6 148.164 350.378 153.147C350.634 154.778 350.891 156.415 351.15 158.053C349.355 157.531 347.557 157.003 345.761 156.475C345.831 157.265 345.881 158.06 345.896 158.85C347.132 159.21 348.368 159.564 349.598 159.926C350.239 160.114 350.879 160.296 351.519 160.484C351.531 160.527 351.534 160.566 351.539 160.61C351.721 161.855 351.903 163.1 352.087 164.351C352.215 165.206 352.482 166.171 352.498 167.071C352.516 167.295 352.504 167.512 352.476 167.72C352.365 168.585 351.645 169.275 351.213 170.013C350.797 170.735 350.487 171.523 350.314 172.332C349.965 173.987 350.005 175.715 350.21 177.384C350.668 181.147 352.031 184.717 353.19 188.322C350.995 188.109 348.807 187.77 346.642 187.309C346.805 187.954 346.975 188.603 347.15 189.245C349.341 189.649 351.551 189.943 353.776 190.137C356.018 196.896 359.366 203.331 361.441 210.136C358.574 209.489 355.739 208.755 352.93 207.911L353.838 210.45C356.551 211.166 359.297 211.797 362.059 212.359C362.153 212.714 362.241 213.077 362.328 213.434C363.299 217.656 363.408 221.871 363.414 226.17C363.414 227.978 363.435 229.788 363.532 231.599C361.663 230.795 359.826 229.906 358.025 228.968C357.899 229.98 357.8 230.993 357.805 232.012C357.851 232.032 357.891 232.055 357.939 232.077ZM366.275 161.731C366.723 163.148 367.164 164.566 367.611 165.984C368.067 167.405 368.524 168.833 368.98 170.255C369.83 172.892 370.664 175.539 371.398 178.208C371.957 180.23 372.52 182.323 372.706 184.419C372.769 185.107 372.806 185.794 372.849 186.487C368.357 187.853 363.624 188.54 358.873 188.581C357.953 188.589 357.038 188.563 356.118 188.519C355.65 187.418 355.194 186.309 354.768 185.186C354.03 183.238 353.327 181.27 352.741 179.274C352.268 177.68 351.816 175.985 351.956 174.319C352.022 173.497 352.256 172.655 352.64 171.915C353.025 171.18 353.614 170.594 354.067 169.908C354.49 169.263 354.701 168.601 354.772 167.928C354.922 166.689 354.628 165.412 354.432 164.118C354.288 163.15 354.151 162.18 354.013 161.211C357.499 162.247 361.275 163.632 364.879 162.344C365.365 162.172 365.826 161.96 366.275 161.731ZM359.905 197.309C358.952 194.963 357.912 192.652 356.895 190.327C362.301 190.528 367.712 190.014 372.942 188.625C372.955 189.201 372.983 189.779 372.977 190.36C372.967 197.686 372.039 205.163 374.342 212.259C371.793 212.064 369.249 211.678 366.757 211.228C365.899 211.078 365.054 210.899 364.204 210.727C364.104 210.269 364.013 209.816 363.907 209.36C362.913 205.229 361.512 201.258 359.905 197.309ZM390.832 175.543C389.231 177.232 387.458 178.786 385.538 180.2C382.308 182.577 378.735 184.43 374.956 185.785C374.397 182.085 373.414 178.419 372.375 174.825C371.829 172.93 371.297 171.032 370.771 169.132C370.136 166.849 369.504 164.571 368.865 162.294C368.696 161.677 368.513 161.056 368.344 160.439C368.761 160.139 369.173 159.821 369.583 159.497C371.149 158.252 372.693 156.979 374.249 155.723C374.531 155.488 374.821 155.256 375.105 155.027C375.628 154.606 376.144 154.186 376.66 153.765C376.742 153.921 376.822 154.072 376.905 154.228C377.367 155.095 377.849 155.964 378.35 156.822C379.104 158.096 379.891 159.363 380.73 160.596C381.141 161.215 381.562 161.826 382.003 162.431C383.344 164.289 384.842 166.038 386.26 167.846C387.692 169.683 388.99 171.59 390.002 173.661C390.308 174.28 390.575 174.907 390.832 175.543ZM395.699 205.624C394.038 207.158 392.273 208.587 390.245 209.667C387.94 210.898 385.41 211.641 382.811 212.042C380.821 212.353 378.803 212.449 376.787 212.395C376.528 211.695 376.292 210.983 376.119 210.243C374.407 202.936 375.934 195.357 375.222 187.953C375.47 187.876 375.715 187.812 375.955 187.73C381.926 185.711 387.432 182.54 391.844 178.324C392.022 178.874 392.196 179.432 392.362 179.985C393.682 184.436 394.548 189.021 395.568 193.537C396.323 196.885 397.106 200.234 397.828 203.59C397.121 204.276 396.42 204.961 395.699 205.624ZM381.753 220.727C380.226 218.685 378.755 216.617 377.647 214.386C380.152 214.442 382.657 214.31 385.132 213.859C390.246 212.92 394.628 210.377 398.321 206.961C398.383 206.907 398.438 206.855 398.493 206.803C398.558 207.101 398.624 207.403 398.681 207.703C399.14 210.054 399.54 212.418 399.8 214.797C400.05 217.113 400.138 219.44 400.294 221.765C400.439 224.021 400.688 226.278 401.305 228.475C401.439 228.932 401.579 229.387 401.738 229.837C400.731 230.535 399.729 231.226 398.701 231.844C396.032 233.446 393.115 234.52 390.086 235.172C389.511 233.792 388.904 232.425 388.248 231.076C386.461 227.416 384.219 224.013 381.753 220.727ZM366.462 232.777C366.138 229.21 366.117 225.618 365.868 222.047C365.652 218.943 365.244 215.897 364.662 212.865C366.056 213.117 367.453 213.355 368.856 213.56C370.919 213.869 373.003 214.129 375.098 214.274C376.527 217.699 378.613 220.826 380.689 223.936C382.989 227.377 384.935 231.012 386.587 234.768C386.716 235.077 386.839 235.386 386.966 235.688C381.653 236.309 376.127 235.707 371.04 234.284C369.482 233.851 367.957 233.337 366.462 232.777Z" fill="#796B75"/>
<path d="M333.983 113.679C334.614 114.747 335.581 115.548 336.543 116.356C339.617 118.946 341.707 122.32 342.675 126.034C342.81 127.043 342.943 128.053 343.078 129.062C343.305 130.791 343.518 132.523 343.697 134.251C343.781 135.071 343.905 135.907 343.927 136.727C343.935 136.966 343.928 137.202 343.926 137.43C343.926 137.951 343.954 138.452 344.248 138.943C344.629 139.582 345.29 140.006 345.931 140.401C346.62 140.825 347.299 141.264 347.977 141.697L352.325 144.502C353.57 145.309 354.963 146.531 356.521 146.699C358.156 146.875 359.574 145.749 360.889 144.991C363.952 143.239 367.049 141.537 370.14 139.836C370.464 139.656 370.587 139.34 370.527 139.003C370.389 138.216 370.263 137.42 370.151 136.626C369.407 131.617 369.041 126.55 368.932 121.496C369.044 121.346 369.125 121.158 369.147 120.925C369.456 116.807 369.758 112.69 370.08 108.569C370.206 106.926 370.59 105.113 370.352 103.47C370.13 101.89 368.895 101.145 367.301 101.07C363.455 100.892 359.586 100.961 355.734 100.915C351.953 100.872 348.168 100.849 344.392 100.772C340.921 100.708 337.474 100.502 334.1 99.68C333.32 99.4859 332.438 100.031 332.457 100.84C332.531 103.769 332.729 106.695 333.011 109.608C333.144 111.007 333.242 112.428 333.983 113.679Z" fill="#E8AB99"/>
<path d="M344.249 138.941C344.63 139.581 345.291 140.004 345.932 140.4C346.621 140.824 347.3 141.263 347.978 141.696L352.326 144.501C353.571 145.308 354.964 146.53 356.522 146.698C358.158 146.874 359.575 145.747 360.89 144.99C363.953 143.238 367.05 141.535 370.141 139.835C370.465 139.654 370.588 139.339 370.528 139.002C370.39 138.215 370.264 137.419 370.152 136.625C367.878 137.529 365.612 138.464 363.212 139.046C360.736 139.654 358.277 139.827 355.731 139.565C353.334 139.321 351.002 138.749 348.655 138.246C347.081 137.913 345.511 137.643 343.927 137.429C343.926 137.95 343.955 138.451 344.249 138.941ZM359.367 144.111C360.379 143.88 361.374 143.608 362.367 143.303C361.484 143.712 360.552 144.041 359.565 144.11C359.498 144.113 359.435 144.108 359.367 144.111Z" fill="#DB9284"/>
<path d="M337.924 13.0014L298.206 7.2668C295.575 6.88708 293.249 8.90514 293.423 11.4156L299.628 100.567C299.762 102.493 301.352 104.042 303.384 104.227L349.083 108.378C349.53 108.418 349.982 108.39 350.42 108.294L360.881 106.005C363.15 105.508 364.547 103.349 363.98 101.213L341.334 15.9341C340.924 14.397 339.581 13.2411 337.924 13.0014Z" fill="#5D6E6D"/>
<path d="M315.269 7.95898L297.974 9.48548L304.026 101.234L352.36 104.969L361.723 99.485L315.269 7.95898Z" fill="white"/>
<path d="M301.352 14.0796C302.396 24.9796 303.481 35.8765 304.488 46.7796C305.479 57.5091 306.076 68.2638 306.629 79.02C306.783 82.0128 306.944 85.0057 307.059 88.0001C307.176 91.0515 307.034 94.1738 307.373 97.2077C307.53 98.6025 309.594 98.6908 309.717 97.2366C309.94 94.5626 309.671 91.8049 309.557 89.1263C309.443 86.4234 309.304 83.7212 309.134 81.0205C308.799 75.6854 308.28 70.3633 307.789 65.0396C306.791 54.2256 306.065 43.3971 305.302 32.5664C304.868 26.4102 304.323 20.2601 303.797 14.11C303.672 12.6353 301.21 12.5988 301.352 14.0796Z" fill="#E5DFE2"/>
<path d="M306.733 12.7701C308.354 34.3106 310.142 55.8367 311.995 77.3604C312.25 80.3236 312.48 83.2982 312.614 86.2682C312.755 89.3836 312.71 92.5028 312.883 95.6166C312.967 97.1256 315.495 97.1386 315.359 95.6478C314.863 90.2176 314.096 84.827 313.692 79.3846C313.296 74.0457 313.039 68.6954 312.713 63.3527C312.056 52.5889 311.418 41.8213 310.648 31.0643C310.212 24.9774 309.776 18.8905 309.341 12.8028C309.229 11.2284 306.613 11.1827 306.733 12.7701Z" fill="#E5DFE2"/>
<path d="M323.207 101.301L327.077 101.655L365.014 105.102C367.474 105.325 369.549 103.375 369.329 101.039L360.935 13.4063C360.774 11.6941 359.391 10.3077 357.596 10.0459L320.271 4.65374L317.947 4.32043C315.451 3.96278 313.237 5.8804 313.408 8.25993L319.639 97.825C319.768 99.6551 321.277 101.129 323.207 101.301Z" fill="#738581"/>
<path d="M349.881 99.7485C349.735 99.8003 349.589 99.849 349.444 99.9045C349.129 100.026 348.884 100.437 348.905 100.751C349.064 103.181 350.365 105.035 352.515 106.352C354.514 107.577 356.852 108.01 359.173 108.327C360.364 108.49 361.559 108.621 362.736 108.866C363.321 108.987 363.9 109.13 364.468 109.308C364.826 109.421 365.607 109.574 365.805 109.904C366.037 110.292 365.716 111.292 365.669 111.717C365.596 112.356 365.529 112.995 365.473 113.636C365.36 114.916 365.292 116.2 365.295 117.484C365.302 120.043 365.688 122.546 366.28 125.038C366.573 126.27 368.348 126.161 368.742 125.073C370.246 120.928 373.169 117.416 376.191 114.16C376.945 113.348 377.671 112.511 378.408 111.684C379.144 110.858 380.023 110.028 380.396 108.982C381.083 107.055 379.515 105.485 379.314 103.669C380.985 102.253 381.49 99.9236 380.814 97.8994C380.578 97.194 380.169 96.573 379.857 95.8988C379.586 95.3137 379.448 94.7224 379.326 94.0954C379.081 92.8443 378.722 91.7501 377.834 90.7745C377.469 90.3743 377.008 90.0706 376.629 89.6856C376.087 89.1354 376.057 88.6659 376.124 87.9331C376.251 86.5443 376.475 85.1723 376.477 83.7744C376.478 81.4916 376.174 79.2757 374.539 77.6228C374.591 77.5703 374.64 77.5087 374.684 77.4387C375.678 75.8521 374.632 74.2952 373.752 72.9323C373.225 72.1165 373.065 71.1729 372.57 70.3427C372.148 69.6343 371.451 69.2104 370.667 68.9175C368.837 68.2334 366.905 67.7456 365.024 67.203C363.35 66.7198 361.509 66.1993 359.739 66.3994C358.863 66.4984 358.127 66.8629 357.36 67.2494C356.741 67.5607 356.09 67.738 355.451 68.0028C354.765 68.2881 354.136 68.7265 353.862 69.4098C353.561 70.1586 353.781 70.953 354.016 71.6927C354.489 73.1834 355.483 74.2038 357.025 74.7449C358.737 75.3453 360.556 75.1444 362.333 75.3453C363.885 75.5211 365.241 75.9457 366.635 76.6047C366.771 76.6694 366.907 76.7356 367.043 76.8018C363.677 77.1944 360.226 76.8512 356.839 77.0635C355.055 77.1754 353.257 77.4395 351.558 77.9797C350.177 78.4188 348.13 79.0709 347.412 80.379C346.694 81.6848 347.523 83.5089 348.259 84.6572C349.019 85.8412 350.338 86.6098 351.759 86.886C353.524 87.2292 355.273 86.8738 357.015 86.5763C357.919 86.4218 358.828 86.3214 359.741 86.224C360.501 86.1433 361.32 85.9493 362.069 86.1152C363.655 86.466 365.046 87.2672 366.432 88.0411C366.845 88.2717 367.248 88.5251 367.65 88.7816C365.23 89.0441 362.809 89.3074 360.389 89.5699C358.924 89.729 357.457 89.8796 355.995 90.0615C354.691 90.2236 353.354 90.3149 352.08 90.6322C350.1 91.1253 348.247 91.9046 347.358 93.7575C346.945 94.6143 346.842 95.6104 347.134 96.5144C347.424 97.4162 348.035 98.5135 348.819 99.1063C349.155 99.362 349.514 99.5659 349.881 99.7485Z" fill="#E8AB99"/>
<path d="M325.725 37.1221C325.941 37.1586 326.156 37.1936 326.368 37.224C327.892 37.4432 329.415 37.6631 330.942 37.8655C334.013 38.2734 337.091 38.6234 340.167 38.9986C346.31 39.7474 352.443 40.4467 358.563 41.3515C358.583 41.7457 358.606 42.1391 358.624 42.5333C358.647 43.0469 358.663 43.5613 358.683 44.075C358.462 44.1161 358.232 44.1313 357.996 44.0925C351.892 43.0964 345.802 41.996 339.687 41.0631C336.659 40.6012 333.632 40.1484 330.591 39.7756C329.081 39.5906 327.569 39.4316 326.055 39.2779C325.95 39.2672 325.839 39.2611 325.733 39.252C325.724 38.5413 325.725 37.8313 325.725 37.1221Z" fill="#5D6E6D"/>
<path d="M326.302 44.5273C326.749 44.5867 327.196 44.6514 327.644 44.7046C329.229 44.8918 330.812 45.0867 332.398 45.2632C335.562 45.6163 338.724 46.0067 341.88 46.4199C347.577 47.1656 353.255 48.0582 358.88 49.1928C358.909 50.0398 358.937 50.8875 358.964 51.7344C353.178 50.5953 347.382 49.4995 341.547 48.6038C338.391 48.1191 335.227 47.7158 332.051 47.3718C330.47 47.2006 328.882 47.0697 327.294 46.9662C327.027 46.9487 326.758 46.9419 326.491 46.9297C326.439 46.1276 326.377 45.3271 326.302 44.5273Z" fill="#5D6E6D"/>
<path d="M328.597 54.7559C328.597 54.6167 328.596 54.4782 328.598 54.3389C328.608 53.8025 328.571 53.266 328.536 52.7295C331.527 53.0613 334.521 53.3877 337.507 53.7591C340.657 54.1517 343.87 54.447 346.966 55.1653C347.003 56.2223 347.049 57.2793 347.093 58.3363C347.068 58.3302 347.044 58.3294 347.018 58.3226C343.739 57.4307 340.277 57.0616 336.924 56.4856C334.147 56.0085 331.375 55.4895 328.604 54.9743C328.601 54.902 328.6 54.829 328.597 54.7559Z" fill="#5D6E6D"/>
<path d="M323.207 101.301L327.077 101.655C326.283 96.1887 325.809 90.6862 325.397 85.1883C324.337 71.0032 323.356 56.806 321.93 42.6414C321.217 35.5752 320.563 28.4952 319.97 21.4144C319.698 18.1476 319.314 14.8755 319.211 11.6011C319.135 9.23831 319.27 6.8192 320.271 4.65275L317.947 4.31946C315.451 3.9618 313.237 5.87943 313.408 8.25895L319.639 97.824C319.768 99.6549 321.277 101.129 323.207 101.301Z" fill="#5D6E6D"/>
<path d="M367.408 76.1371C368.55 75.8137 369.724 75.743 370.904 75.8731C371.462 75.9347 372.024 75.9925 372.57 76.1189C372.828 76.179 373.138 76.2399 373.365 76.3753C373.491 76.4499 373.624 76.5732 373.698 76.6964C373.756 76.7938 373.75 76.8829 373.842 76.9582C374.042 77.1218 373.816 77.4308 373.582 77.3653C373.665 77.2732 373.649 77.274 373.534 77.3669C373.477 77.4003 373.415 77.4262 373.349 77.4437C373.215 77.481 373.074 77.4909 372.936 77.4818C372.713 77.4665 372.495 77.443 372.272 77.4399C371.753 77.4338 371.233 77.4277 370.714 77.4232C369.593 77.414 368.489 77.3136 367.393 77.0815C366.862 76.9689 366.944 76.2688 367.408 76.1371Z" fill="#DB9284"/>
<path d="M368.137 87.6894C368.675 87.5075 369.216 87.3447 369.79 87.3059C370.373 87.267 370.978 87.3477 371.55 87.4443C372.086 87.5341 372.601 87.6643 373.112 87.8431C373.376 87.9352 373.639 88.031 373.887 88.1589C374.136 88.2875 374.321 88.5135 374.575 88.6269C374.797 88.7258 374.633 89.0553 374.406 88.9952C374.152 88.9275 373.853 89.0005 373.59 88.9777C373.359 88.9579 373.13 88.9237 372.9 88.8993C372.385 88.8453 371.863 88.8065 371.344 88.7905C370.836 88.7745 370.328 88.7905 369.82 88.7783C369.295 88.7661 368.776 88.6756 368.252 88.6429C367.653 88.604 367.596 87.872 368.137 87.6894Z" fill="#DB9284"/>
<path d="M351.86 99.2577C352.99 99.0736 354.146 99.0621 355.281 98.8742C356.41 98.6877 357.5 98.3872 358.594 98.0729C360.567 97.5052 362.619 96.8493 364.708 97.1377C366.844 97.4329 368.953 98.3651 370.927 99.1588C373.056 100.014 375.09 101.039 377.19 101.938C377.66 102.139 377.314 102.892 376.83 102.728C374.732 102.015 372.568 101.435 370.457 100.744C368.457 100.089 366.415 99.2113 364.319 98.8727C362.225 98.534 360.282 99.3719 358.287 99.817C356.286 100.264 353.882 100.627 351.845 100.211C351.344 100.109 351.351 99.3407 351.86 99.2577Z" fill="#DB9284"/>
<path d="M348.702 118.96C349.293 117.059 350.26 115.329 351.683 113.867C354.055 111.428 357.402 110.08 360.749 109.101C360.318 109.06 359.887 109.012 359.457 108.955C357.831 108.737 356.341 108.272 354.803 107.745C354.29 107.569 354.497 106.872 355.031 106.975C358.219 107.589 361.653 107.702 364.889 107.446C365.398 107.405 365.925 107.317 366.422 107.418C366.608 107.409 366.793 107.403 366.97 107.397C367.608 107.375 368.247 107.447 368.881 107.509C370.15 107.633 371.431 107.748 372.705 107.608C373.006 107.576 373.277 107.867 373.304 108.124C373.337 108.433 373.141 108.652 372.845 108.755C371.603 109.19 370.287 109.173 368.982 109.085C368.749 109.069 368.516 109.049 368.282 109.029C369.169 110.05 370.243 110.818 371.219 111.745C371.492 112.004 371.245 112.373 370.914 112.403C369.614 112.521 368.443 111.601 367.609 110.756C367.134 110.275 366.738 109.725 366.263 109.247C365.867 108.846 364.783 109.166 364.22 109.194C364.125 109.199 364.031 109.197 363.936 109.2C363.877 109.263 363.803 109.318 363.7 109.349C359.785 110.557 355.921 111.951 353.077 114.885C350.307 117.745 350.087 121.499 349.058 125.059C348.953 125.424 348.389 125.408 348.291 125.049C347.75 123.058 348.101 120.899 348.702 118.96Z" fill="#DB9284"/>
<path d="M376.147 154.503C376.147 154.496 376.145 154.489 376.144 154.482C376.131 154.375 376.116 154.267 376.105 154.16C376.101 153.997 376.139 153.845 376.219 153.705C376.274 153.551 376.367 153.417 376.499 153.307C376.618 153.193 376.757 153.113 376.916 153.069C377.064 153 377.222 152.971 377.389 152.978C377.498 152.992 377.607 153.007 377.715 153.022C377.938 153.083 378.131 153.192 378.292 153.35C378.296 153.356 378.301 153.362 378.305 153.367C378.369 153.411 378.434 153.454 378.488 153.506C378.491 153.508 378.492 153.509 378.495 153.512C378.5 153.518 378.676 153.746 378.681 153.754C378.683 153.755 378.684 153.758 378.685 153.759C378.814 153.968 378.826 154.133 378.847 154.368C378.848 154.375 378.848 154.382 378.848 154.39C378.842 154.461 378.809 154.648 378.799 154.707C378.751 154.929 378.603 155.09 378.452 155.254C378.446 155.26 378.441 155.265 378.434 155.27C378.347 155.337 378.258 155.403 378.162 155.457C378.158 155.46 378.154 155.461 378.15 155.463C378.05 155.504 377.948 155.55 377.842 155.575C377.839 155.576 377.837 155.576 377.835 155.577C377.82 155.579 377.528 155.612 377.512 155.613C377.395 155.618 377.276 155.596 377.163 155.566C377.045 155.536 376.931 155.485 376.824 155.428C376.819 155.425 376.814 155.422 376.809 155.419L376.807 155.416C376.719 155.349 376.63 155.283 376.543 155.216C376.539 155.213 376.535 155.211 376.532 155.208C376.528 155.204 376.524 155.2 376.521 155.196C376.448 155.114 376.385 155.024 376.321 154.936C376.313 154.926 376.307 154.916 376.301 154.906C376.248 154.802 376.206 154.693 376.169 154.585C376.164 154.572 376.161 154.559 376.158 154.546C376.152 154.532 376.15 154.518 376.147 154.503Z" fill="#4E454F"/>
<path d="M378.798 154.707C378.798 154.705 378.799 154.704 378.799 154.702C378.793 154.736 378.794 154.731 378.798 154.707Z" fill="#4E454F"/>
<path d="M373.094 149.715C373.101 149.615 373.132 149.523 373.175 149.433C373.175 149.426 373.174 149.42 373.174 149.413C373.176 149.262 373.19 149.205 373.226 149.103C373.268 149.012 373.31 148.919 373.352 148.828C373.418 148.75 373.484 148.673 373.55 148.595L373.797 148.424C373.931 148.349 374.075 148.309 374.228 148.304C374.329 148.28 374.43 148.282 374.529 148.308C374.636 148.309 374.735 148.336 374.826 148.388C374.93 148.416 375.02 148.467 375.095 148.54C375.226 148.623 375.327 148.732 375.399 148.868C375.414 148.888 375.429 148.909 375.443 148.93C375.446 148.935 375.449 148.938 375.452 148.943C375.48 148.986 375.499 149.031 375.511 149.082C375.54 149.124 375.557 149.17 375.565 149.218C375.566 149.221 375.566 149.225 375.567 149.228C375.583 149.269 375.6 149.312 375.615 149.352C375.622 149.368 375.627 149.385 375.631 149.401C375.633 149.41 375.635 149.42 375.636 149.429C375.651 149.514 375.662 149.624 375.671 149.71C375.672 149.716 375.672 149.722 375.672 149.728C375.674 149.745 375.673 149.763 375.671 149.781C375.66 149.881 375.647 149.98 375.625 150.078C375.623 150.086 375.621 150.095 375.618 150.103C375.582 150.203 375.539 150.301 375.485 150.392C375.482 150.397 375.479 150.402 375.475 150.406C375.474 150.408 375.473 150.41 375.471 150.412C375.439 150.45 375.407 150.489 375.374 150.527C375.342 150.565 375.309 150.603 375.276 150.641C375.269 150.649 375.262 150.656 375.255 150.662C375.25 150.666 375.245 150.669 375.24 150.673C375.181 150.715 375.061 150.8 375 150.838C374.997 150.84 374.994 150.842 374.991 150.844C374.981 150.849 374.971 150.855 374.96 150.859C374.958 150.861 374.954 150.861 374.952 150.862C374.88 150.89 374.753 150.938 374.68 150.963C374.674 150.964 374.669 150.966 374.662 150.968C374.651 150.971 374.64 150.973 374.629 150.975C374.581 150.982 374.507 150.988 374.48 150.992C374.455 150.995 374.38 151.004 374.331 151.008C374.325 151.008 374.319 151.008 374.312 151.008C374.302 151.008 374.292 151.007 374.282 151.006C374.323 151.011 374.055 150.99 373.966 150.96C373.964 150.96 373.962 150.959 373.96 150.958C373.913 150.94 373.866 150.92 373.819 150.9C373.772 150.881 373.725 150.862 373.679 150.842C373.674 150.84 373.67 150.838 373.665 150.836C373.662 150.834 373.661 150.832 373.658 150.832C373.621 150.808 373.455 150.68 373.42 150.651C373.416 150.648 373.411 150.645 373.408 150.641C373.274 150.501 373.143 150.304 373.108 150.114C373.065 149.982 373.061 149.848 373.094 149.715Z" fill="#4E454F"/>
<path d="M352.431 167.967C355.28 168.308 357.914 169.503 360.658 170.248C362.033 170.621 363.456 170.92 364.895 170.826C366.245 170.739 367.529 170.261 368.704 169.651C369.975 168.99 371.09 168.183 372.094 167.193C372.829 166.47 374.231 165.487 374.12 164.378C374.059 163.765 373.691 163.195 373.427 162.641C373.114 161.979 372.804 161.314 372.493 160.651L370.556 156.531C369.112 153.46 367.528 150.445 365.921 147.448C365.682 147.003 365.745 146.412 366.151 146.065C368.524 144.038 370.898 141.973 372.832 139.548C373.356 138.892 374.453 139.473 374.013 140.22C372.506 142.772 370.723 145.212 368.441 147.202C369.712 150.013 371.014 152.815 372.431 155.564C373.197 157.051 373.964 158.538 374.731 160.026C375.115 160.769 375.502 161.511 375.876 162.26C375.927 162.361 375.977 162.464 376.028 162.568C376.053 162.55 376.075 162.536 376.081 162.531C376.637 162.14 377.19 161.748 377.757 161.371C378.26 161.035 378.771 160.712 379.274 160.375C379.79 160.03 380.25 159.636 380.713 159.23C381.044 158.939 381.583 158.947 381.897 159.259C382.225 159.585 382.176 160.064 381.866 160.378C381.408 160.845 380.949 161.301 380.513 161.787C380.093 162.256 379.668 162.721 379.209 163.156C378.75 163.591 378.267 163.988 377.762 164.376C377.731 164.399 377.698 164.426 377.667 164.45C380.577 168.832 383.281 173.349 385.742 177.969C387.016 180.36 388.018 182.837 388.525 185.476C389.045 188.182 389.241 190.939 389.476 193.678C389.703 196.342 389.882 199.011 389.921 201.684C389.959 204.347 389.945 207.011 390.508 209.631C391.082 212.299 392.184 214.81 393.328 217.297C394.472 219.781 395.597 222.266 396.597 224.806C398.846 230.526 400.881 236.545 401.428 242.652C401.513 243.602 400.011 243.673 399.747 242.835C398.107 237.639 396.854 232.358 394.945 227.236C393.991 224.676 392.923 222.158 391.763 219.676C390.626 217.243 389.411 214.835 388.572 212.29C386.889 207.193 387.651 201.778 387.288 196.527C387.102 193.838 386.871 191.145 386.561 188.465C386.254 185.811 385.743 183.053 384.608 180.593C383.355 177.877 381.712 175.32 380.123 172.771C378.695 170.48 377.232 168.208 375.756 165.944C375.271 166.502 374.649 166.993 374.166 167.442C373.058 168.473 371.923 169.505 370.724 170.443C368.218 172.406 365.326 173.091 362.131 172.534C360.354 172.224 358.624 171.639 356.927 171.067C355.188 170.48 353.532 169.823 352.084 168.717C351.78 168.484 352.047 167.922 352.431 167.967Z" fill="#4E454F"/>
</svg>
