<svg width="16" height="18" viewBox="0 0 16 18" fill="none" xmlns="http://www.w3.org/2000/svg">
<path id="Exclude" fill-rule="evenodd" clip-rule="evenodd" d="M12.6026 5.16366V6.44145C14.0379 6.88946 15.0837 8.18877 15.0837 9.74066V13.8547C15.0837 15.776 13.4909 17.3337 11.5272 17.3337H4.47432C2.50979 17.3337 0.916992 15.776 0.916992 13.8547V9.74066C0.916992 8.18877 1.96362 6.88946 3.39806 6.44145V5.16366C3.40653 2.67931 5.46421 0.666992 7.98762 0.666992C10.5449 0.666992 12.6026 2.67931 12.6026 5.16366ZM8.00456 2.1162C9.72353 2.1162 11.1207 3.48259 11.1207 5.16366V6.26175H4.87993V5.1471C4.8884 3.47431 6.28559 2.1162 8.00456 2.1162ZM8.74126 12.7128C8.74126 13.1185 8.41101 13.4415 7.99609 13.4415C7.58964 13.4415 7.25939 13.1185 7.25939 12.7128V10.8744C7.25939 10.4769 7.58964 10.1539 7.99609 10.1539C8.41101 10.1539 8.74126 10.4769 8.74126 10.8744V12.7128Z" fill="#888272"/>
</svg>
