<svg width="27" height="26" viewBox="0 0 27 26" fill="none" xmlns="http://www.w3.org/2000/svg">
<path fill-rule="evenodd" clip-rule="evenodd" d="M3.52747 8.40617C2.97949 9.40727 2.97949 10.6149 2.97949 13.0301V14.6355C2.97949 18.7526 2.97949 20.8111 4.21599 22.0901C5.45249 23.3691 7.44261 23.3691 11.4228 23.3691H15.6445C19.6248 23.3691 21.6149 23.3691 22.8514 22.0901C24.0879 20.8111 24.0879 18.7526 24.0879 14.6355V13.0301C24.0879 10.6149 24.0879 9.40727 23.5399 8.40617C22.9919 7.40507 21.9908 6.78375 19.9886 5.54112L17.8777 4.23107C15.7613 2.91752 14.703 2.26074 13.5337 2.26074C12.3643 2.26074 11.3061 2.91752 9.18961 4.23107L7.07877 5.54112C5.07655 6.78375 4.07544 7.40507 3.52747 8.40617ZM10.3674 18.3559C9.93025 18.3559 9.57586 18.7103 9.57586 19.1474C9.57586 19.5846 9.93025 19.939 10.3674 19.939H16.6999C17.1371 19.939 17.4915 19.5846 17.4915 19.1474C17.4915 18.7103 17.1371 18.3559 16.6999 18.3559H10.3674Z" fill="#FDFDFC"/>
</svg>
