<svg width="25" height="25" viewBox="0 0 25 25" fill="none" xmlns="http://www.w3.org/2000/svg">
<path d="M2.36816 12.8541C2.36816 10.5657 2.36816 9.42148 2.88736 8.47295C3.40656 7.52441 4.35511 6.93572 6.2522 5.75833L8.2522 4.51708C10.2576 3.2725 11.2602 2.65021 12.3682 2.65021C13.4761 2.65021 14.4788 3.2725 16.4841 4.51708L18.4841 5.75833C20.3812 6.93572 21.3298 7.52441 21.849 8.47295C22.3682 9.42148 22.3682 10.5657 22.3682 12.8541V14.3752C22.3682 18.2761 22.3682 20.2265 21.1966 21.4384C20.025 22.6502 18.1394 22.6502 14.3682 22.6502H10.3682C6.59693 22.6502 4.71131 22.6502 3.53974 21.4384C2.36816 20.2265 2.36816 18.2761 2.36816 14.3752V12.8541Z" stroke="#888272" stroke-width="1.5"/>
<path d="M15.3682 18.6502H9.36816" stroke="#888272" stroke-width="1.5" stroke-linecap="round"/>
</svg>
