<svg width="25" height="25" viewBox="0 0 25 25" fill="none" xmlns="http://www.w3.org/2000/svg">
<path d="M7.61817 7.65039C7.61817 7.23618 7.95395 6.90039 8.36817 6.90039H16.3682C16.7824 6.90039 17.1182 7.23618 17.1182 7.65039C17.1182 8.06461 16.7824 8.40039 16.3682 8.40039H8.36817C7.95395 8.40039 7.61817 8.06461 7.61817 7.65039Z" fill="#888272"/>
<path d="M8.36817 10.4004C7.95395 10.4004 7.61817 10.7362 7.61817 11.1504C7.61817 11.5646 7.95395 11.9004 8.36817 11.9004H13.3682C13.7824 11.9004 14.1182 11.5646 14.1182 11.1504C14.1182 10.7362 13.7824 10.4004 13.3682 10.4004H8.36817Z" fill="#888272"/>
<path fill-rule="evenodd" clip-rule="evenodd" d="M10.3133 1.90039C8.94571 1.90037 7.84338 1.90035 6.97641 2.01692C6.07631 2.13793 5.31843 2.39683 4.71652 2.99874C4.1146 3.60066 3.8557 4.35853 3.73469 5.25864C3.61813 6.12561 3.61814 7.22792 3.61816 8.59551V16.7053C3.61814 18.0729 3.61813 19.1752 3.73469 20.0421C3.8557 20.9423 4.1146 21.7001 4.71652 22.302C5.31843 22.904 6.07631 23.1629 6.97641 23.2839C7.84338 23.4004 8.9457 23.4004 10.3133 23.4004H14.423C15.7906 23.4004 16.8929 23.4004 17.7599 23.2839C18.66 23.1629 19.4179 22.904 20.0198 22.302C20.6217 21.7001 20.8806 20.9423 21.0016 20.0421C21.1182 19.1752 21.1182 18.0729 21.1182 16.7053V8.59552C21.1182 7.22793 21.1182 6.12561 21.0016 5.25864C20.8806 4.35853 20.6217 3.60066 20.0198 2.99874C19.4179 2.39683 18.66 2.13793 17.7599 2.01692C16.893 1.90035 15.7906 1.90037 14.4231 1.90039H10.3133ZM5.77718 4.0594C6.05394 3.78264 6.44251 3.60219 7.17629 3.50354C7.93164 3.40198 8.93275 3.40039 10.3682 3.40039H14.3682C15.8036 3.40039 16.8047 3.40198 17.56 3.50354C18.2938 3.60219 18.6824 3.78264 18.9592 4.0594C19.2359 4.33616 19.4164 4.72474 19.515 5.45851C19.6166 6.21386 19.6182 7.21498 19.6182 8.65039V15.9004L8.15015 15.9004C7.33218 15.9001 6.77403 15.8999 6.29537 16.0282C5.86739 16.1428 5.4704 16.3302 5.11817 16.5763V8.65039C5.11817 7.21498 5.11976 6.21386 5.22131 5.45851C5.31997 4.72474 5.50041 4.33616 5.77718 4.0594ZM5.14492 18.8995C5.16012 19.2533 5.18395 19.5644 5.22131 19.8423C5.31997 20.576 5.50041 20.9646 5.77718 21.2414C6.05394 21.5181 6.44251 21.6986 7.17629 21.7972C7.93164 21.8988 8.93275 21.9004 10.3682 21.9004H14.3682C15.8036 21.9004 16.8047 21.8988 17.56 21.7972C18.2938 21.6986 18.6824 21.5181 18.9592 21.2414C19.2359 20.9646 19.4164 20.576 19.515 19.8423C19.5979 19.226 19.6142 18.4462 19.6174 17.4004H8.26594C7.28769 17.4004 6.94568 17.4068 6.6836 17.4771C5.96428 17.6698 5.39084 18.2045 5.14492 18.8995Z" fill="#888272"/>
</svg>
