<svg width="17" height="21" viewBox="0 0 17 21" fill="none" xmlns="http://www.w3.org/2000/svg">
<path fill-rule="evenodd" clip-rule="evenodd" d="M2.63919 0.761901C1.82951 0.868554 1.40074 1.06363 1.09535 1.36283C0.789954 1.66204 0.590841 2.08212 0.481982 2.87539C0.369922 3.69198 0.368164 4.77426 0.368164 6.32607V14.8946C0.756838 14.6285 1.1949 14.426 1.66715 14.302C2.19533 14.1634 2.81122 14.1636 3.7138 14.1639L16.3682 14.1639V6.32607C16.3682 4.77426 16.3664 3.69198 16.2543 2.87539C16.1455 2.08211 15.9464 1.66204 15.641 1.36283C15.3356 1.06363 14.9068 0.868554 14.0971 0.761901C13.2636 0.652113 12.159 0.650391 10.5751 0.650391H6.16127C4.57736 0.650391 3.47268 0.652113 2.63919 0.761901ZM3.12678 5.24499C3.12678 4.79719 3.49731 4.43417 3.95437 4.43417H12.782C13.239 4.43417 13.6095 4.79719 13.6095 5.24499C13.6095 5.69278 13.239 6.0558 12.782 6.0558H3.95437C3.49731 6.0558 3.12678 5.69278 3.12678 5.24499ZM3.95437 8.21796C3.49731 8.21796 3.12678 8.58097 3.12678 9.02877C3.12678 9.47657 3.49731 9.83958 3.95437 9.83958H9.47161C9.92867 9.83958 10.2992 9.47657 10.2992 9.02877C10.2992 8.58097 9.92867 8.21796 9.47161 8.21796H3.95437Z" fill="#FDFDFC"/>
<path d="M3.84157 15.7855H5.05782H9.47161H16.3673C16.3638 16.9161 16.3458 17.7592 16.2543 18.4254C16.1455 19.2187 15.9464 19.6387 15.641 19.9379C15.3356 20.2372 14.9068 20.4322 14.0971 20.5389C13.2636 20.6487 12.159 20.6504 10.5751 20.6504H6.16127C4.57736 20.6504 3.47268 20.6487 2.63919 20.5389C1.82951 20.4322 1.40074 20.2372 1.09535 19.9379C0.789954 19.6387 0.590841 19.2187 0.481982 18.4254C0.440758 18.125 0.414462 17.7886 0.397689 17.4062C0.669048 16.6548 1.30181 16.0768 2.09554 15.8684C2.38474 15.7925 2.76212 15.7855 3.84157 15.7855Z" fill="#FDFDFC"/>
</svg>
