<svg width="43" height="43" viewBox="0 0 43 43" fill="none" xmlns="http://www.w3.org/2000/svg">
<rect x="0.368164" y="0.541992" width="42.2168" height="42.2168" rx="21.1084" fill="#E04D53"/>
<path d="M29.3927 22.9673H22.7964V29.5636C22.7964 29.9135 22.6574 30.2491 22.41 30.4965C22.1626 30.7439 21.827 30.8829 21.4771 30.8829C21.1272 30.8829 20.7916 30.7439 20.5442 30.4965C20.2968 30.2491 20.1578 29.9135 20.1578 29.5636V22.9673H13.5615C13.2116 22.9673 12.876 22.8283 12.6286 22.5809C12.3812 22.3335 12.2422 21.9979 12.2422 21.648C12.2422 21.2981 12.3812 20.9625 12.6286 20.7151C12.876 20.4677 13.2116 20.3287 13.5615 20.3287H20.1578V13.7324C20.1578 13.3825 20.2968 13.0469 20.5442 12.7995C20.7916 12.5521 21.1272 12.4131 21.4771 12.4131C21.827 12.4131 22.1626 12.5521 22.41 12.7995C22.6574 13.0469 22.7964 13.3825 22.7964 13.7324V20.3287H29.3927C29.7426 20.3287 30.0782 20.4677 30.3256 20.7151C30.573 20.9625 30.712 21.2981 30.712 21.648C30.712 21.9979 30.573 22.3335 30.3256 22.5809C30.0782 22.8283 29.7426 22.9673 29.3927 22.9673Z" fill="#FDFDFC"/>
</svg>
