<svg width="25" height="25" viewBox="0 0 25 25" fill="none" xmlns="http://www.w3.org/2000/svg">
<g id="Outline / Users / Users Group Rounded">
<g id="Vector">
<path fill-rule="evenodd" clip-rule="evenodd" d="M9.58496 1.90039C6.96161 1.90039 4.83496 4.02704 4.83496 6.65039C4.83496 9.27374 6.96161 11.4004 9.58496 11.4004C12.2083 11.4004 14.335 9.27374 14.335 6.65039C14.335 4.02704 12.2083 1.90039 9.58496 1.90039ZM6.33496 6.65039C6.33496 4.85547 7.79004 3.40039 9.58496 3.40039C11.3799 3.40039 12.835 4.85547 12.835 6.65039C12.835 8.44532 11.3799 9.90039 9.58496 9.90039C7.79004 9.90039 6.33496 8.44532 6.33496 6.65039Z" fill="#888272"/>
<path d="M15.585 2.90039C15.1707 2.90039 14.835 3.23618 14.835 3.65039C14.835 4.0646 15.1707 4.40039 15.585 4.40039C16.8276 4.40039 17.835 5.40775 17.835 6.65039C17.835 7.89303 16.8276 8.90039 15.585 8.90039C15.1707 8.90039 14.835 9.23618 14.835 9.65039C14.835 10.0646 15.1707 10.4004 15.585 10.4004C17.656 10.4004 19.335 8.72146 19.335 6.65039C19.335 4.57932 17.656 2.90039 15.585 2.90039Z" fill="#888272"/>
<path fill-rule="evenodd" clip-rule="evenodd" d="M4.26311 14.1708C5.66248 13.3711 7.54563 12.9004 9.58496 12.9004C11.6243 12.9004 13.5074 13.3711 14.9068 14.1708C16.285 14.9583 17.335 16.1605 17.335 17.6504C17.335 19.1403 16.285 20.3425 14.9068 21.13C13.5074 21.9296 11.6243 22.4004 9.58496 22.4004C7.54563 22.4004 5.66248 21.9296 4.26311 21.13C2.88496 20.3425 1.83496 19.1403 1.83496 17.6504C1.83496 16.1605 2.88496 14.9583 4.26311 14.1708ZM5.00732 15.4731C3.85197 16.1333 3.33496 16.9311 3.33496 17.6504C3.33496 18.3697 3.85197 19.1674 5.00732 19.8276C6.14145 20.4757 7.7583 20.9004 9.58496 20.9004C11.4116 20.9004 13.0285 20.4757 14.1626 19.8276C15.318 19.1674 15.835 18.3697 15.835 17.6504C15.835 16.9311 15.318 16.1333 14.1626 15.4731C13.0285 14.8251 11.4116 14.4004 9.58496 14.4004C7.7583 14.4004 6.14145 14.8251 5.00732 15.4731Z" fill="#888272"/>
<path d="M18.7456 13.9178C18.341 13.8291 17.9411 14.0851 17.8524 14.4897C17.7636 14.8943 18.0197 15.2943 18.4243 15.383C19.2167 15.5567 19.8499 15.8552 20.2678 16.1972C20.6863 16.5396 20.835 16.8741 20.835 17.1504C20.835 17.4011 20.7143 17.6954 20.3819 18.0043C20.047 18.3154 19.5324 18.6028 18.8687 18.8027C18.4721 18.9221 18.2474 19.3404 18.3668 19.7371C18.4862 20.1337 18.9046 20.3584 19.3012 20.239C20.1238 19.9913 20.8592 19.6082 21.4028 19.1033C21.9487 18.5961 22.335 17.929 22.335 17.1504C22.335 16.2856 21.8607 15.5624 21.2178 15.0363C20.5743 14.5097 19.7075 14.1287 18.7456 13.9178Z" fill="#888272"/>
</g>
</g>
</svg>
