<svg width="25" height="25" viewBox="0 0 25 25" fill="none" xmlns="http://www.w3.org/2000/svg">
<circle cx="9.58594" cy="6.65021" r="4" fill="#FDFDFC"/>
<ellipse cx="9.58594" cy="17.6512" rx="7" ry="4" fill="#FDFDFC"/>
<path d="M21.5851 17.6507C21.5851 19.3075 19.5495 20.6506 17.0642 20.6506C17.7965 19.8503 18.2999 18.8457 18.2999 17.6521C18.2999 16.457 17.7953 15.4515 17.0617 14.6507C19.547 14.6507 21.5851 15.9938 21.5851 17.6507Z" fill="#FDFDFC"/>
<path d="M18.5851 6.65094C18.5851 8.30779 17.2419 9.65094 15.5851 9.65094C15.2238 9.65094 14.8774 9.58708 14.5566 9.47002C15.0297 8.63793 15.2999 7.67543 15.2999 6.64982C15.2999 5.62498 15.0301 4.66314 14.5577 3.83147C14.8782 3.71466 15.2242 3.65094 15.5851 3.65094C17.2419 3.65094 18.5851 4.99409 18.5851 6.65094Z" fill="#FDFDFC"/>
</svg>
