<svg width="25" height="25" viewBox="0 0 25 25" fill="none" xmlns="http://www.w3.org/2000/svg">
<g id="vuesax/linear/frame">
<g id="vuesax/linear/frame_2">
<g id="frame">
<path id="Vector" d="M9.83496 9.7002C11.615 10.3502 13.555 10.3502 15.335 9.7002" stroke="#888272" stroke-width="1.5" stroke-linecap="round" stroke-linejoin="round"/>
<path id="Vector_2" d="M17.4053 2.65039H7.76527C5.63527 2.65039 3.90527 4.39039 3.90527 6.51039V20.6004C3.90527 22.4004 5.19527 23.1604 6.77527 22.2904L11.6553 19.5804C12.1753 19.2904 13.0153 19.2904 13.5253 19.5804L18.4053 22.2904C19.9853 23.1704 21.2753 22.4104 21.2753 20.6004V6.51039C21.2653 4.39039 19.5353 2.65039 17.4053 2.65039Z" stroke="#888272" stroke-width="1.5" stroke-linecap="round" stroke-linejoin="round"/>
<path id="Vector_3" d="M17.4053 2.65039H7.76527C5.63527 2.65039 3.90527 4.39039 3.90527 6.51039V20.6004C3.90527 22.4004 5.19527 23.1604 6.77527 22.2904L11.6553 19.5804C12.1753 19.2904 13.0153 19.2904 13.5253 19.5804L18.4053 22.2904C19.9853 23.1704 21.2753 22.4104 21.2753 20.6004V6.51039C21.2653 4.39039 19.5353 2.65039 17.4053 2.65039Z" stroke="#888272" stroke-width="1.5" stroke-linecap="round" stroke-linejoin="round"/>
</g>
</g>
</g>
</svg>
