<svg width="19" height="21" viewBox="0 0 19 21" fill="none" xmlns="http://www.w3.org/2000/svg">
<path fill-rule="evenodd" clip-rule="evenodd" d="M18.585 9.74791V14.7413C18.585 17.8379 18.585 19.3862 17.8509 20.0627C17.5007 20.3854 17.0588 20.5881 16.588 20.6419C15.6009 20.7549 14.4482 19.7353 12.1428 17.6962C11.1237 16.7949 10.6142 16.3442 10.0247 16.2255C9.73439 16.167 9.43553 16.167 9.14524 16.2255C8.55571 16.3442 8.04618 16.7949 7.02712 17.6962C4.72169 19.7353 3.56898 20.7549 2.58188 20.6419C2.11111 20.5881 1.66918 20.3854 1.31907 20.0627C0.584961 19.3862 0.584961 17.8379 0.584961 14.7413V9.74791C0.584961 5.4593 0.584961 3.31499 1.90298 1.98269C3.221 0.650391 5.34232 0.650391 9.58496 0.650391C13.8276 0.650391 15.9489 0.650391 17.2669 1.98269C18.585 3.31499 18.585 5.4593 18.585 9.74791ZM5.83496 4.65039C5.83496 4.23618 6.17075 3.90039 6.58496 3.90039H12.585C12.9992 3.90039 13.335 4.23618 13.335 4.65039C13.335 5.0646 12.9992 5.40039 12.585 5.40039H6.58496C6.17075 5.40039 5.83496 5.0646 5.83496 4.65039Z" fill="#FDFDFC"/>
</svg>
